<?xml version="1.0" encoding="UTF-8" standalone="no"?>
<!-- Created with Inkscape (http://www.inkscape.org/) -->

<svg
   xmlns:dc="http://purl.org/dc/elements/1.1/"
   xmlns:cc="http://creativecommons.org/ns#"
   xmlns:rdf="http://www.w3.org/1999/02/22-rdf-syntax-ns#"
   xmlns:svg="http://www.w3.org/2000/svg"
   xmlns="http://www.w3.org/2000/svg"
   xmlns:sodipodi="http://sodipodi.sourceforge.net/DTD/sodipodi-0.dtd"
   xmlns:inkscape="http://www.inkscape.org/namespaces/inkscape"
   width="146.06808mm"
   height="143.3223mm"
   viewBox="0 0 517.56407 507.83491"
   id="svg2"
   version="1.1"
   inkscape:version="0.91 r13725"
   sodipodi:docname="boulder.svg">
  <defs
     id="defs4" />
  <sodipodi:namedview
     id="base"
     pagecolor="#ffffff"
     bordercolor="#666666"
     borderopacity="1.0"
     inkscape:pageopacity="0.0"
     inkscape:pageshadow="2"
     inkscape:zoom="0.49497475"
     inkscape:cx="172.14027"
     inkscape:cy="15.577913"
     inkscape:document-units="px"
     inkscape:current-layer="layer1"
     showgrid="false"
     fit-margin-top="0"
     fit-margin-left="0"
     fit-margin-right="0"
     fit-margin-bottom="0"
     inkscape:window-width="1920"
     inkscape:window-height="1017"
     inkscape:window-x="1912"
     inkscape:window-y="-8"
     inkscape:window-maximized="1" />
  <metadata
     id="metadata7">
    <rdf:RDF>
      <cc:Work
         rdf:about="">
        <dc:format>image/svg+xml</dc:format>
        <dc:type
           rdf:resource="http://purl.org/dc/dcmitype/StillImage" />
        <dc:title></dc:title>
      </cc:Work>
    </rdf:RDF>
  </metadata>
  <g
     inkscape:label="Layer 1"
     inkscape:groupmode="layer"
     id="layer1"
     transform="translate(18.833451,-48.596064)">
    <g
       id="g4287"
       transform="matrix(0.85804585,0,0,0.85804585,-18.833593,48.543831)"
       style="fill:#ff2a2a">
      <g
         id="g4137"
         style="fill:#ff2a2a">
        <g
           id="g4139"
           style="fill:#ff2a2a">
          <path
             id="path4141"
             d="m 467.239,190.447 c -6.052,-29.83 -26.124,-53.404 -58.047,-68.173 -36.368,-16.826 -87.362,-22.163 -151.562,-15.863 -99.424,9.757 -163.821,40.769 -191.4,92.172 -14.505,27.036 -18.34,59.932 -11.088,95.133 5.051,24.521 13.734,42.058 15.226,44.96 1.343,3.322 10.13,23.919 29.579,44.614 19.279,20.514 53.079,44.97 104.617,44.97 53.364,0 69.706,-17.935 88.628,-38.699 15.916,-17.466 33.956,-37.263 81.246,-52.022 28.063,-8.759 54.546,-29.913 72.66,-58.039 18.465,-28.671 25.806,-61.13 20.141,-89.053 z m -97.323,132.601 c -51.217,15.985 -71.58,38.332 -87.943,56.289 -17.85,19.589 -30.748,33.743 -77.407,33.743 -36.819,0 -68.164,-13.381 -93.166,-39.772 -18.922,-19.973 -26.961,-40.326 -27.04,-40.53 -0.106,-0.276 -0.233,-0.554 -0.371,-0.814 -0.358,-0.678 -35.447,-68.448 -4.328,-126.301 25.069,-46.609 85.446,-74.919 179.453,-84.143 111.324,-10.924 181.756,15.298 193.249,71.945 10.183,50.204 -29.884,113.178 -82.447,129.583 z"
             inkscape:connector-curvature="0"
             style="fill:#ff2a2a" />
        </g>
      </g>
      <g
         id="g4143"
         style="fill:#ff2a2a">
        <g
           id="g4145"
           style="fill:#ff2a2a">
          <path
             id="path4147"
             d="m 439.461,142.046 c -2.764,-3.147 -7.559,-3.46 -10.709,-0.697 -0.268,0.235 -27.161,23.586 -57.622,30.753 -35.012,8.24 -61.035,41.836 -62.126,43.262 -2.544,3.327 -1.91,8.084 1.415,10.632 1.377,1.055 2.999,1.565 4.61,1.565 2.279,0 4.535,-1.022 6.03,-2.97 0.235,-0.307 23.885,-30.733 53.548,-37.712 34.228,-8.054 62.959,-33.066 64.165,-34.127 3.146,-2.767 3.452,-7.558 0.689,-10.706 z"
             inkscape:connector-curvature="0"
             style="fill:#ff2a2a" />
        </g>
      </g>
      <g
         id="g4149"
         style="fill:#ff2a2a">
        <g
           id="g4151"
           style="fill:#ff2a2a">
          <path
             id="path4153"
             d="m 367.755,180.44 c -1.361,-3.072 -4.522,-4.795 -7.679,-4.483 -4.13,-0.218 -27.164,-3.604 -47.712,-6.855 -4.132,-0.655 -8.027,2.17 -8.683,6.31 -0.656,4.14 2.17,8.028 6.311,8.683 34.926,5.528 46.138,6.974 50.561,6.974 1.945,0 2.578,-0.28 3.337,-0.614 3.832,-1.699 5.563,-6.182 3.865,-10.015 z"
             inkscape:connector-curvature="0"
             style="fill:#ff2a2a" />
        </g>
      </g>
      <g
         id="g4155"
         style="fill:#ff2a2a">
        <g
           id="g4157"
           style="fill:#ff2a2a">
          <path
             id="path4159"
             d="m 262.322,313.54 c -0.493,-4.162 -4.268,-7.138 -8.432,-6.642 -21.929,2.605 -38.092,8.994 -48.04,18.987 -7.386,7.419 -8.876,14.392 -9.173,16.671 -0.391,1.909 -4.117,17.676 -20.893,20.849 -26.442,5.002 -42.942,36.039 -43.633,37.357 -1.942,3.715 -0.506,8.302 3.209,10.244 1.123,0.587 2.326,0.865 3.511,0.865 2.734,0 5.377,-1.483 6.733,-4.075 3.748,-7.171 16.987,-26.446 33.002,-29.476 28.002,-5.297 32.869,-32.204 33.062,-33.347 0.056,-0.329 0.071,-0.285 0.078,-0.52 0.331,-1.514 4.824,-17.835 43.934,-22.481 4.164,-0.493 7.137,-4.269 6.642,-8.432 z"
             inkscape:connector-curvature="0"
             style="fill:#ff2a2a" />
        </g>
      </g>
      <g
         id="g4161"
         style="fill:#ff2a2a">
        <g
           id="g4163"
           style="fill:#ff2a2a">
          <path
             id="path4165"
             d="m 233.637,378.051 c -1.18,-4.023 -5.397,-6.328 -9.419,-5.147 -29.607,8.682 -48.104,40.95 -48.877,42.319 -2.06,3.65 -0.771,8.28 2.879,10.341 1.179,0.665 2.46,0.982 3.724,0.982 2.649,0 5.222,-1.39 6.617,-3.861 0.159,-0.281 16.173,-28.248 39.929,-35.215 4.023,-1.179 6.327,-5.397 5.147,-9.419 z"
             inkscape:connector-curvature="0"
             style="fill:#ff2a2a" />
        </g>
      </g>
      <g
         id="g4167"
         style="fill:#ff2a2a">
        <g
           id="g4169"
           style="fill:#ff2a2a">
          <path
             id="path4171"
             d="m 150.642,249.017 c -0.299,-4.182 -3.935,-7.329 -8.111,-7.03 -19.143,1.366 -21.371,-1.001 -32.088,-12.38 -2.106,-2.237 -4.493,-4.771 -7.309,-7.586 -19.509,-19.51 -34.375,-17.858 -36.007,-17.605 -4.142,0.642 -6.98,4.521 -6.338,8.663 0.643,4.142 4.521,6.978 8.663,6.338 0.082,-0.015 9.183,-0.43 22.949,13.337 2.654,2.654 4.959,5.101 6.992,7.259 10.923,11.597 17.303,17.438 35.916,17.438 2.527,0 5.283,-0.107 8.302,-0.323 4.183,-0.298 7.33,-3.929 7.031,-8.111 z"
             inkscape:connector-curvature="0"
             style="fill:#ff2a2a" />
        </g>
      </g>
      <g
         id="g4173"
         style="fill:#ff2a2a">
        <g
           id="g4175"
           style="fill:#ff2a2a">
          <path
             id="path4177"
             d="m 213.459,169.167 c -5.201,-2.905 -13.86,-4.398 -25.583,4.985 -5.221,4.18 -9.747,8.388 -13.739,12.1 -14.668,13.638 -17.351,14.676 -23.914,9.252 -0.817,-0.675 -0.949,-1.014 -0.952,-1.004 -0.159,-1.876 4.489,-7.373 6.987,-10.328 5.469,-6.469 11.667,-13.801 10.799,-22.429 -0.474,-4.703 -2.939,-8.844 -7.327,-12.308 -22.596,-17.839 -51.346,2.914 -52.558,3.806 -3.377,2.484 -4.102,7.235 -1.617,10.612 2.484,3.376 7.235,4.101 10.611,1.616 0.204,-0.15 20.539,-14.868 34.156,-4.119 1.153,0.909 1.598,1.599 1.629,1.913 0.224,2.223 -4.478,7.784 -7.287,11.108 -5.529,6.539 -11.245,13.301 -10.515,21.482 0.389,4.343 2.542,8.162 6.402,11.352 17.651,14.588 31.006,2.173 43.92,-9.835 3.986,-3.706 8.107,-7.537 12.89,-11.366 3.829,-3.066 7.162,-4.443 8.693,-3.583 3.722,2.08 7.752,14.816 5.056,36.622 -0.514,4.16 2.441,7.95 6.601,8.464 0.317,0.039 0.63,0.059 0.941,0.059 3.776,-0.001 7.048,-2.816 7.524,-6.66 3.234,-26.144 -1.522,-45.485 -12.717,-51.739 z"
             inkscape:connector-curvature="0"
             style="fill:#ff2a2a" />
        </g>
      </g>
      <g
         id="g4179"
         style="fill:#ff2a2a">
        <g
           id="g4181"
           style="fill:#ff2a2a">
          <path
             id="path4183"
             d="m 242.632,175.929 c -22.304,0.922 -29.949,23.132 -30.264,24.078 -1.324,3.977 0.828,8.275 4.805,9.599 0.796,0.265 1.604,0.391 2.398,0.391 3.179,0 6.142,-2.013 7.199,-5.196 0.044,-0.133 4.533,-13.211 16.488,-13.705 4.189,-0.173 7.443,-3.708 7.27,-7.897 -0.173,-4.189 -3.704,-7.459 -7.896,-7.27 z"
             inkscape:connector-curvature="0"
             style="fill:#ff2a2a" />
        </g>
      </g>
      <g
         id="g4185"
         style="fill:#ff2a2a">
        <g
           id="g4187"
           style="fill:#ff2a2a">
          <path
             id="path4189"
             d="m 462.055,173.63 c -1.091,-2.567 -3.521,-4.344 -6.298,-4.603 -4.56,-0.419 -6.864,3.019 -7.619,4.15 -8.9,13.359 -25.979,22.531 -48.092,25.824 -45.571,6.786 -64.071,32.616 -64.836,33.712 -0.05,0.07 -0.097,0.141 -0.144,0.213 -6.965,10.731 -29.707,37.683 -51.027,33.61 -4.118,-0.785 -8.093,1.913 -8.879,6.03 -0.787,4.117 1.913,8.093 6.029,8.88 2.496,0.477 4.956,0.698 7.386,0.698 31.542,-0.005 56.932,-37.472 59.114,-40.785 1.226,-1.666 16.688,-21.698 54.593,-27.344 26.371,-3.927 47.12,-15.413 58.439,-32.347 1.903,-2.125 2.524,-5.239 1.334,-8.038 z"
             inkscape:connector-curvature="0"
             style="fill:#ff2a2a" />
        </g>
      </g>
      <g
         id="g4191"
         style="fill:#ff2a2a">
        <g
           id="g4193"
           style="fill:#ff2a2a">
          <path
             id="path4195"
             d="m 395.086,202.192 c -3.475,-2.343 -8.194,-1.422 -10.535,2.053 -2.343,3.476 -1.424,8.194 2.053,10.536 0.428,0.288 10.427,7.223 5.57,21.144 -1.382,3.958 0.707,8.285 4.665,9.667 0.829,0.288 1.672,0.425 2.501,0.425 3.137,0 6.074,-1.962 7.166,-5.091 6.937,-19.879 -4.437,-34.029 -11.42,-38.734 z"
             inkscape:connector-curvature="0"
             style="fill:#ff2a2a" />
        </g>
      </g>
      <g
         id="g4197"
         style="fill:#ff2a2a">
        <g
           id="g4199"
           style="fill:#ff2a2a">
          <path
             id="path4201"
             d="m 468.956,218.32 c -0.914,-4.091 -4.966,-6.666 -9.062,-5.753 -3.006,0.672 -73.924,16.751 -99.788,43.875 -2.892,3.034 -2.779,7.839 0.255,10.731 1.469,1.401 3.355,2.097 5.237,2.097 2.003,0 4.003,-0.788 5.493,-2.352 22.69,-23.795 91.42,-39.38 92.112,-39.535 4.091,-0.915 6.665,-4.973 5.753,-9.063 z"
             inkscape:connector-curvature="0"
             style="fill:#ff2a2a" />
        </g>
      </g>
      <g
         id="g4203"
         style="fill:#ff2a2a">
        <g
           id="g4205"
           style="fill:#ff2a2a">
          <path
             id="path4207"
             d="m 162.236,326.13 c -2.693,-3.212 -7.48,-3.634 -10.693,-0.94 -12.451,10.438 -21.289,10.928 -21.376,10.931 l 0.156,-0.002 0,15.18 c 1.403,0 14.188,-0.406 30.972,-14.476 3.213,-2.693 3.634,-7.481 0.941,-10.693 z"
             inkscape:connector-curvature="0"
             style="fill:#ff2a2a" />
        </g>
      </g>
      <g
         id="g4209"
         style="fill:#ff2a2a">
        <g
           id="g4211"
           style="fill:#ff2a2a">
          <path
             id="path4213"
             d="m 199.588,287.437 c -3.905,-1.523 -8.307,0.41 -9.829,4.315 -4.717,12.099 -17.675,19.209 -17.869,19.314 -3.689,1.967 -5.092,6.55 -3.135,10.248 1.362,2.573 3.993,4.04 6.715,4.04 1.197,0 2.414,-0.284 3.545,-0.883 0.735,-0.389 18.076,-9.728 24.888,-27.205 1.522,-3.906 -0.41,-8.307 -4.315,-9.829 z"
             inkscape:connector-curvature="0"
             style="fill:#ff2a2a" />
        </g>
      </g>
      <g
         id="g4215"
         style="fill:#ff2a2a">
        <g
           id="g4217"
           style="fill:#ff2a2a">
          <path
             id="path4219"
             d="m 89.098,480.628 c -2.807,-19.651 -40.619,-30.591 -41,-30.699 -28.955,-8.212 -41.375,10.096 -46.695,26.897 -3.4,10.738 -0.553,20.612 7.816,27.087 6.896,5.337 17.27,7.951 28.509,7.951 13.31,0 27.834,-3.666 39.233,-10.814 11.42,-7.162 12.903,-15.059 12.137,-20.422 z m -20.202,7.56 c -16.888,10.592 -41.374,10.694 -50.387,3.719 -2.228,-1.724 -4.542,-4.477 -2.635,-10.5 4.545,-14.351 11.429,-18.377 18.954,-18.377 2.977,0 6.057,0.632 9.129,1.501 12.637,3.583 29.349,12.89 30.113,18.241 0.142,0.993 -1.404,3.052 -5.174,5.416 z"
             inkscape:connector-curvature="0"
             style="fill:#ff2a2a" />
        </g>
      </g>
      <g
         id="g4221"
         style="fill:#ff2a2a">
        <g
           id="g4223"
           style="fill:#ff2a2a">
          <path
             id="path4225"
             d="m 52.647,453.519 c -2.049,-3.656 -6.674,-4.961 -10.332,-2.911 -0.381,0.214 -9.413,5.339 -16.132,14.694 -9.31,12.961 -9.961,28.138 -1.835,42.735 1.388,2.495 3.974,3.9 6.639,3.9 1.25,0 2.517,-0.309 3.684,-0.961 3.662,-2.039 4.979,-6.661 2.94,-10.323 -12.259,-22.02 9.595,-35.356 12.148,-36.816 3.64,-2.055 4.933,-6.669 2.888,-10.318 z"
             inkscape:connector-curvature="0"
             style="fill:#ff2a2a" />
        </g>
      </g>
      <g
         id="g4227"
         style="fill:#ff2a2a">
        <g
           id="g4229"
           style="fill:#ff2a2a">
          <path
             id="path4231"
             d="M 507.292,14.214 C 503.892,9.255 497.139,3.215 484.275,2.602 480.727,2.434 477.191,1.875 473.769,1.335 c -7.999,-1.263 -16.27,-2.567 -24.206,1.297 -8.418,4.099 -14.457,13.133 -19.004,28.429 -7.861,26.441 -8.408,42.109 -1.83,52.388 4.2,6.564 11.259,10.603 20.981,12.005 1.051,0.153 2.102,0.225 3.151,0.225 13.349,0 26.455,-11.742 35.372,-22.031 10.13,-11.687 19.281,-26.584 22.767,-37.07 1.83,-5.497 1.45,-14.841 -3.708,-22.364 z m -10.697,17.577 c -5.91,17.772 -30.498,48.72 -43.626,48.719 -0.373,0 -0.738,-0.025 -1.092,-0.077 -6.971,-1.007 -9.253,-3.429 -10.363,-5.163 -3.796,-5.932 -2.621,-18.977 3.595,-39.88 3.161,-10.631 6.895,-17.06 11.099,-19.107 1.559,-0.759 3.385,-1.046 5.469,-1.046 2.786,0 6.034,0.512 9.722,1.096 3.646,0.575 7.777,1.228 12.152,1.436 5.328,0.253 9.102,1.947 11.219,5.033 2.31,3.367 2.242,7.735 1.825,8.989 z"
             inkscape:connector-curvature="0"
             style="fill:#ff2a2a" />
        </g>
      </g>
      <g
         id="g4233"
         style="fill:#ff2a2a">
        <g
           id="g4235"
           style="fill:#ff2a2a">
          <path
             id="path4237"
             d="M 501.723,41.43 C 480.262,11.974 440.664,20.156 438.987,20.52 c -4.097,0.886 -6.698,4.927 -5.811,9.024 0.888,4.098 4.927,6.697 9.025,5.812 0.311,-0.068 31.546,-6.545 47.254,15.013 1.485,2.039 3.797,3.121 6.14,3.121 1.55,0 3.115,-0.473 4.463,-1.455 3.389,-2.469 4.134,-7.216 1.665,-10.605 z"
             inkscape:connector-curvature="0"
             style="fill:#ff2a2a" />
        </g>
      </g>
      <g
         id="g4239"
         style="fill:#ff2a2a">
        <g
           id="g4241"
           style="fill:#ff2a2a">
          <path
             id="path4243"
             d="m 389.197,50.444 c -12.389,-2.032 -24.127,6.387 -26.162,18.777 -2.035,12.39 6.388,24.125 18.776,26.161 1.245,0.204 2.483,0.304 3.706,0.304 10.944,0 20.625,-7.936 22.456,-19.079 l 0,-0.001 c 2.035,-12.39 -6.388,-24.126 -18.776,-26.162 z m 3.799,23.7 c -0.68,4.13 -4.588,6.936 -8.721,6.258 -4.13,-0.678 -6.937,-4.59 -6.259,-8.719 0.61,-3.716 3.838,-6.36 7.486,-6.36 0.407,0 0.82,0.033 1.236,0.101 4.128,0.678 6.936,4.59 6.258,8.72 z"
             inkscape:connector-curvature="0"
             style="fill:#ff2a2a" />
        </g>
      </g>
      <g
         id="g4245"
         style="fill:#ff2a2a">
        <g
           id="g4247"
           style="fill:#ff2a2a">
          <path
             id="path4249"
             d="m 160.111,448.197 c -12.388,-2.037 -24.124,6.388 -26.161,18.777 -0.986,6.002 0.424,12.029 3.97,16.969 3.547,4.942 8.805,8.205 14.807,9.192 1.25,0.205 2.5,0.307 3.741,0.307 4.722,0 9.315,-1.468 13.228,-4.277 4.942,-3.547 8.205,-8.805 9.192,-14.807 2.035,-12.389 -6.388,-24.124 -18.777,-26.161 z m 3.798,23.702 c -0.678,4.129 -4.582,6.94 -8.72,6.258 -4.129,-0.679 -6.937,-4.59 -6.258,-8.72 0.61,-3.715 3.836,-6.36 7.485,-6.36 0.407,0 0.82,0.032 1.235,0.102 4.129,0.679 6.937,4.59 6.258,8.72 z"
             inkscape:connector-curvature="0"
             style="fill:#ff2a2a" />
        </g>
      </g>
      <g
         id="g4251"
         style="fill:#ff2a2a" />
      <g
         id="g4253"
         style="fill:#ff2a2a" />
      <g
         id="g4255"
         style="fill:#ff2a2a" />
      <g
         id="g4257"
         style="fill:#ff2a2a" />
      <g
         id="g4259"
         style="fill:#ff2a2a" />
      <g
         id="g4261"
         style="fill:#ff2a2a" />
      <g
         id="g4263"
         style="fill:#ff2a2a" />
      <g
         id="g4265"
         style="fill:#ff2a2a" />
      <g
         id="g4267"
         style="fill:#ff2a2a" />
      <g
         id="g4269"
         style="fill:#ff2a2a" />
      <g
         id="g4271"
         style="fill:#ff2a2a" />
      <g
         id="g4273"
         style="fill:#ff2a2a" />
      <g
         id="g4275"
         style="fill:#ff2a2a" />
      <g
         id="g4277"
         style="fill:#ff2a2a" />
      <g
         id="g4279"
         style="fill:#ff2a2a" />
    </g>
    <g
       id="g4400"
       transform="matrix(0.57217069,0,0,0.57217069,293.32134,291.51592)"
       style="fill:#ff2a2a">
      <path
         id="path4362"
         d="m 343.5,416 -48.5,0 0,-24.5 c 0,-4.142 -3.357,-7.5 -7.5,-7.5 L 239,384 239,78.277 C 257.205,74.762 271,58.716 271,39.5 271,17.72 253.28,0 231.5,0 209.72,0 192,17.72 192,39.5 c 0,19.216 13.795,35.262 32,38.777 l 0,305.723 -48.5,0 c -4.143,0 -7.5,3.358 -7.5,7.5 l 0,24.5 -48.5,0 c -8.547,0 -15.5,6.953 -15.5,15.5 l 0,16 c 0,8.547 6.953,15.5 15.5,15.5 l 224,0 c 8.547,0 15.5,-6.953 15.5,-15.5 l 0,-16 C 359,422.953 352.047,416 343.5,416 Z M 207,39.5 C 207,25.991 217.99,15 231.5,15 245.01,15 256,25.991 256,39.5 256,53.009 245.01,64 231.5,64 217.99,64 207,53.009 207,39.5 Z m -24,359.5 97,0 0,17 -97,0 0,-17 z m 161,48.5 c 0,0.276 -0.225,0.5 -0.5,0.5 l -224,0 c -0.275,0 -0.5,-0.224 -0.5,-0.5 l 0,-16 c 0,-0.276 0.225,-0.5 0.5,-0.5 l 224,0 c 0.275,0 0.5,0.224 0.5,0.5 l 0,16 z"
         inkscape:connector-curvature="0"
         style="fill:#ff2a2a" />
      <g
         id="g4364"
         style="fill:#ff2a2a" />
      <g
         id="g4366"
         style="fill:#ff2a2a" />
      <g
         id="g4368"
         style="fill:#ff2a2a" />
      <g
         id="g4370"
         style="fill:#ff2a2a" />
      <g
         id="g4372"
         style="fill:#ff2a2a" />
      <g
         id="g4374"
         style="fill:#ff2a2a" />
      <g
         id="g4376"
         style="fill:#ff2a2a" />
      <g
         id="g4378"
         style="fill:#ff2a2a" />
      <g
         id="g4380"
         style="fill:#ff2a2a" />
      <g
         id="g4382"
         style="fill:#ff2a2a" />
      <g
         id="g4384"
         style="fill:#ff2a2a" />
      <g
         id="g4386"
         style="fill:#ff2a2a" />
      <g
         id="g4388"
         style="fill:#ff2a2a" />
      <g
         id="g4390"
         style="fill:#ff2a2a" />
      <g
         id="g4392"
         style="fill:#ff2a2a" />
    </g>
  </g>
</svg>
