<?xml version="1.0" encoding="UTF-8" standalone="no"?>
<!-- Created with Inkscape (http://www.inkscape.org/) -->

<svg
   xmlns:dc="http://purl.org/dc/elements/1.1/"
   xmlns:cc="http://creativecommons.org/ns#"
   xmlns:rdf="http://www.w3.org/1999/02/22-rdf-syntax-ns#"
   xmlns:svg="http://www.w3.org/2000/svg"
   xmlns="http://www.w3.org/2000/svg"
   xmlns:sodipodi="http://sodipodi.sourceforge.net/DTD/sodipodi-0.dtd"
   xmlns:inkscape="http://www.inkscape.org/namespaces/inkscape"
   width="210mm"
   height="297mm"
   viewBox="0 0 744.09448819 1052.3622047"
   id="svg2"
   version="1.1"
   inkscape:version="0.91 r13725"
   sodipodi:docname="logo.svg">
  <defs
     id="defs4" />
  <sodipodi:namedview
     id="base"
     pagecolor="#ffffff"
     bordercolor="#666666"
     borderopacity="1.0"
     inkscape:pageopacity="0.0"
     inkscape:pageshadow="2"
     inkscape:zoom="0.24748737"
     inkscape:cx="1193.3455"
     inkscape:cy="658.90941"
     inkscape:document-units="px"
     inkscape:current-layer="layer1"
     showgrid="false"
     showborder="false"
     inkscape:window-width="1920"
     inkscape:window-height="1017"
     inkscape:window-x="1912"
     inkscape:window-y="-8"
     inkscape:window-maximized="1" />
  <metadata
     id="metadata7">
    <rdf:RDF>
      <cc:Work
         rdf:about="">
        <dc:format>image/svg+xml</dc:format>
        <dc:type
           rdf:resource="http://purl.org/dc/dcmitype/StillImage" />
        <dc:title></dc:title>
      </cc:Work>
    </rdf:RDF>
  </metadata>
  <g
     inkscape:label="Layer 1"
     inkscape:groupmode="layer"
     id="layer1">
    <path
       id="path4149"
       d="m 352.85715,169.93364 c -20.18034,0 -39.6635,3.00819 -58.21075,8.31573 l 28.02306,72.94376 c 9.72078,-2.21634 19.8059,-3.49326 30.18769,-3.49326 10.38179,0 20.46671,1.27731 30.18749,3.49326 l 28.02326,-72.94376 c -18.54725,-5.2881 -38.03041,-8.31573 -58.21075,-8.31573 z m -94.47392,22.40328 c -29.16234,14.50341 -54.57576,35.41805 -74.38671,60.94482 l 65.80521,41.88275 c 1.86055,-2.15743 3.86031,-4.18907 5.84763,-6.22732 l 0,0.19441 c 0.58324,-0.97208 1.57282,-1.96146 2.54412,-2.5447 l -0.34217,0 c 8.50626,-8.32935 18.05985,-15.57483 28.51668,-21.45415 l -27.98515,-72.79192 z m 188.94765,0 -27.98516,72.82983 c 10.40629,5.85852 19.84925,13.13919 28.32694,21.41624 l -0.15553,0 c 0.97207,0.58324 1.96087,1.57282 2.54412,2.54393 l 0,-0.30329 c 3.23896,3.31712 6.33503,6.76877 9.22716,10.40434 l 67.36189,-39.30072 c -20.43308,-28.54021 -47.65282,-51.84228 -79.32312,-67.58994 z m -284.3328,93.67643 c -15.22274,29.37619 -23.99807,62.56877 -23.99807,97.77743 l 77.76623,0 c 0,-19.90816 4.41401,-38.76841 12.11287,-55.81866 l -65.88103,-41.95877 z m 189.85907,0.56964 c -6.61013,0 -13.22026,0.57547 -19.44156,1.93638 l 0,270.24524 38.88312,0 0,-270.24544 c -6.2213,-1.36091 -12.83143,-1.93638 -19.44156,-1.93638 z m 193.42834,6.87278 -67.36208,39.30092 c 6.39627,15.78654 10.02465,32.99232 10.02465,51.03409 l 77.76623,0 c 0,-32.27299 -7.48072,-62.8252 -20.4288,-90.33501 z m -251.75302,12.56878 c -23.52428,17.69181 -38.88311,46.07649 -38.88311,77.76623 l 0,174.97403 38.88311,0 0,-252.74026 z m 116.64936,0 0,252.74026 38.88311,0 0,-174.97403 c 0,-31.68974 -15.35883,-60.07442 -38.88311,-77.76623 z m -272.18182,116.64935 0,77.76623 77.76623,0 0,-77.76623 -77.76623,0 z m 349.94805,0 0,77.76623 77.76623,0 0,-77.76623 -77.76623,0 z m -349.94805,116.64935 0,58.32467 77.76623,0 0,-58.32467 -77.76623,0 z m 349.94805,0 0,58.32467 77.76623,0 0,-58.32467 -77.76623,0 z"
       inkscape:connector-curvature="0" />
    <text
       xml:space="preserve"
       style="font-style:normal;font-weight:normal;font-size:593.53778076px;line-height:125%;font-family:sans-serif;text-align:center;letter-spacing:0px;word-spacing:0px;text-anchor:middle;fill:#000000;fill-opacity:1;stroke:none;stroke-width:1px;stroke-linecap:butt;stroke-linejoin:miter;stroke-opacity:1"
       x="1458.076"
       y="591.30573"
       id="text4158"
       sodipodi:linespacing="125%"><tspan
         sodipodi:role="line"
         id="tspan4160"
         x="1458.076"
         y="591.30573"
         style="font-style:normal;font-variant:normal;font-weight:normal;font-stretch:normal;font-family:'18thCentury';-inkscape-font-specification:'18thCentury'">DunGen</tspan></text>
    <text
       xml:space="preserve"
       style="font-style:normal;font-weight:normal;font-size:200.62051392px;line-height:125%;font-family:sans-serif;text-align:center;letter-spacing:0px;word-spacing:0px;text-anchor:middle;fill:#000000;fill-opacity:1;stroke:none;stroke-width:1px;stroke-linecap:butt;stroke-linejoin:miter;stroke-opacity:1"
       x="778.06342"
       y="273.3139"
       id="text4162"
       sodipodi:linespacing="125%"><tspan
         sodipodi:role="line"
         id="tspan4164"
         x="778.06342"
         y="273.3139"
         style="font-style:normal;font-variant:normal;font-weight:normal;font-stretch:normal;font-family:'18thCentury';-inkscape-font-specification:'18thCentury'">DIY</tspan></text>
  </g>
</svg>
