<?xml version="1.0" encoding="UTF-8" standalone="no"?>
<!-- Created with Inkscape (http://www.inkscape.org/) -->
<svg xmlns:inkscape="http://www.inkscape.org/namespaces/inkscape" xmlns:rdf="http://www.w3.org/1999/02/22-rdf-syntax-ns#" xmlns="http://www.w3.org/2000/svg" xmlns:xlink="http://www.w3.org/1999/xlink" xmlns:ns1="http://sozi.baierouge.fr" xmlns:cc="http://creativecommons.org/ns#" xmlns:sodipodi="http://sodipodi.sourceforge.net/DTD/sodipodi-0.dtd" xmlns:dc="http://purl.org/dc/elements/1.1/" id="svg2" xml:space="preserve" viewBox="0 0 272.5 89.849" version="1.1" inkscape:version="0.91 r13725">
  <g id="g10" transform="matrix(1.25 0 0 -1.25 0 89.849)">
    <g id="g12">
      <path id="path14" style="fill-rule:evenodd;fill:#8c847c" d="m216.88 27.801c-0.719-0.59-1.707-1.094-2.957-1.523-1.121-0.371-2.027-0.559-2.723-0.559-5.304 0-9.09 0.375-11.359 1.121-3.067 1.039-7.238 1.785-12.52 2.238l-0.441 0.2c1.387 1.015 2.894 2.656 4.523 4.922 0 0.32-0.148 0.574-0.441 0.757-0.32 0.188-0.481 0.309-0.481 0.36 1.282 0.64 2 1.043 2.161 1.203-0.348 0.183-1.266 0.547-2.762 1.078-1.359 0.48-2.133 0.734-2.317 0.762l-0.32 0.117c0.32-0.024 1.25-0.078 2.797-0.16 2.32-0.133 5.723-0.426 10.203-0.879 4.719-1.973 7.547-3.172 8.481-3.598 2.773-1.281 5.066-2.59 6.879-3.922 0.425-0.293 0.746-0.64 0.96-1.039 0.106-0.238 0.211-0.601 0.317-1.078zm-9.199-4.844c1.308-0.797 1.988-1.222 2.043-1.277-1.071-0.855-2.282-1.281-3.645-1.281-0.664 0-1.652 0.172-2.957 0.519-1.601 0.399-2.652 0.852-3.16 1.36-0.055 0.214-0.082 0.453-0.082 0.722 2.109 0.106 4.707 0.094 7.801-0.043zm-44.918 24.321 1 0.043c0.398 0 0.918-0.094 1.558-0.282 0.641-0.214 0.957-0.386 0.957-0.519l-0.839-0.16c-0.184-0.028-0.614 0.078-1.278 0.32-0.695 0.238-1.16 0.437-1.398 0.598zm20.039-9.477c-1.336 0.051-2 0.133-2 0.238l1.398 0.239c1.199 0.082 2.469-0.106 3.801-0.559-0.852-0.027-1.922 0-3.199 0.082zm1.359-5.203c0.508-0.211 0.762-0.481 0.762-0.797 0-0.32-0.254-0.59-0.762-0.801-0.508-0.215-1.121-0.32-1.84-0.32-0.718 0-1.332 0.105-1.84 0.32-0.507 0.211-0.761 0.481-0.761 0.801 0 0.316 0.254 0.586 0.761 0.797 0.508 0.215 1.118 0.32 1.84 0.32 0.719 0 1.332-0.105 1.84-0.32zm-42.238 17.961c0.344-0.399 0.516-1.012 0.516-1.84 0-1.144-0.516-1.746-1.559-1.801-2.027 0.188-4.067 0.336-6.117 0.442 2.238 2.824 3.492 4.238 3.758 4.238 1.679 0 2.812-0.344 3.402-1.039zm7.84-18.16c-0.348-0.055-0.856-0.039-1.524 0.039-0.664 0.082-1.16 0.187-1.476 0.32 0.023 0.32 0.531 0.414 1.515 0.281 0.961-0.105 1.469-0.254 1.524-0.441l-0.043-0.199h0.004zm10.918-6.121c1.629 0.347 3.746 0.75 6.359 1.203 2.402 0.426 5.066 0.972 8 1.636l0.883 0.282c-0.188-0.133-1.551-1-4.082-2.598-1.735-1.07-3.215-2.16-4.442-3.281 0.454-0.43 2.868-2.403 7.243-5.922l0.238-0.758c-0.051-0.215-0.145-0.359-0.281-0.441-0.133-0.082-0.387-0.121-0.758-0.121-0.746 0-2.32 0.347-4.719 1.043-2.402 0.718-5.562 1.078-9.48 1.078-0.453 0-3.161 0.359-8.121 1.082-5.172 0.773-7.934 1.172-8.282 1.199 0.535 0.266 2.453 0.535 5.762 0.801 3.359 0.265 5.574 0.625 6.641 1.078-0.161 0.293-0.442 0.574-0.84 0.844 0.879 0.343 2.332 0.586 4.359 0.718 1.758 0.161 2.719 0.332 2.879 0.52-0.051 0.184-0.187 0.387-0.398 0.598-0.403 0.375-0.723 0.718-0.961 1.039zm-26.442 1.082c1.707-0.133 3.668 0.613 5.883 2.242 1.547 1.172 2.801 2.371 3.758 3.598-0.691-2.641-1.719-4.415-3.078-5.321-0.856-0.558-2.121-0.84-3.801-0.84l-2.762 0.321zm44.203-4.68c2.184 1.305 3.293 1.973 3.321 2l0.238 0.238h2.121c-0.242-0.558-0.668-1.371-1.281-2.437 1.305 0.211 2.519 0.636 3.64 1.277 0.958 0.586 1.692 0.883 2.2 0.883 0.531 0 1.332-0.613 2.398-1.84-0.48-0.801-0.906-1.402-1.277-1.801-0.668-0.695-1.535-1.043-2.602-1.043-1.652 0-3.652 0.27-6 0.801-2.187 0.481-3.281 0.844-3.281 1.082 0 0.32 0.027 0.492 0.082 0.52 0.266 0.187 0.414 0.293 0.441 0.32zm12.079-4.359c0.187 0.691 0.281 1.117 0.281 1.281l1.879-1.082c-0.321-0.641-0.68-1.106-1.078-1.403-0.137 0-0.254 0.043-0.364 0.122-0.211 0.132-0.453 0.492-0.718 1.082zm-80.52 48.757c0-0.211-0.121-0.398-0.359-0.558-0.243-0.133-0.536-0.199-0.879-0.199-0.348 0-0.641 0.066-0.883 0.199-0.238 0.16-0.359 0.347-0.359 0.558 0 0.215 0.121 0.387 0.359 0.52 0.242 0.16 0.535 0.242 0.883 0.242 0.343 0 0.636-0.082 0.879-0.242 0.238-0.133 0.359-0.305 0.359-0.52zm-8.48-8.64c-0.215-0.399-0.454-0.719-0.719-0.957-0.535-0.481-1.309-0.723-2.321-0.723-0.32 0-0.761 0.067-1.32 0.199 0.934 1.067 1.785 1.817 2.559 2.243 1.066 0.613 1.668 0.359 1.801-0.762zm19.441-17.957c-0.055-0.242-0.359-0.387-0.922-0.442-0.48 0.051-0.879 0.133-1.199 0.239l-0.32 0.32c0.507 0.269 1.042 0.375 1.601 0.32 0.531-0.051 0.813-0.199 0.84-0.437zm-29.602 26c-0.16-0.16-0.359-0.242-0.597-0.242-0.242 0-0.442 0.082-0.602 0.242s-0.238 0.359-0.238 0.597c0 0.243 0.078 0.442 0.238 0.602s0.36 0.238 0.602 0.238c0.238 0 0.437-0.078 0.597-0.238 0.161-0.16 0.243-0.359 0.243-0.602 0-0.238-0.082-0.437-0.243-0.597zm-3.038-9.281c0.239-0.133 0.36-0.293 0.36-0.481 0-0.187-0.121-0.359-0.36-0.519-0.242-0.133-0.519-0.2-0.84-0.2-0.32 0-0.601 0.067-0.839 0.2-0.243 0.16-0.36 0.332-0.36 0.519 0 0.188 0.117 0.348 0.36 0.481 0.238 0.16 0.519 0.238 0.839 0.238 0.321 0 0.598-0.078 0.84-0.238zm-6.84 3.199c0-0.293-0.066-0.547-0.199-0.758-0.16-0.188-0.336-0.281-0.519-0.281-0.188 0-0.348 0.093-0.481 0.281-0.16 0.211-0.242 0.465-0.242 0.758s0.082 0.535 0.242 0.718c0.133 0.215 0.293 0.321 0.481 0.321 0.183 0 0.359-0.106 0.519-0.321 0.133-0.183 0.199-0.425 0.199-0.718zm-7.718-17.961 1.84-0.481c-0.161-0.316-0.481-0.558-0.961-0.718-0.321-0.106-0.602-0.161-0.84-0.161-0.746 0-1.133 0.133-1.16 0.403 0.32 0.344 0.547 0.558 0.679 0.636 0.078 0.055-0.039 0.067-0.359 0.043l0.801 0.278zm-13.282-6.68c-0.347 0.293-0.546 0.84-0.601 1.641 0.773 0.187 1.613 0.441 2.519 0.761 0.829 0.211 1.934 0.332 3.321 0.36l-0.68-0.801c-1.144-1.254-2.078-1.973-2.801-2.16-0.371-0.106-0.957-0.039-1.758 0.199zm5.442 11.481 1.476 0.32c0.375 0 0.801 0.082 1.282 0.242 0.879 0.293 1.851 0.57 2.922 0.84-0.188-1.043-0.856-1.723-2-2.043-0.641-0.184-1.641-0.277-3-0.277-0.723 0-1.122 0.144-1.204 0.437 0.028 0.133 0.204 0.293 0.524 0.481zm0.879-2.399c-0.028 0.051-0.039 0.106-0.039 0.16 0 0.051 0.011 0.106 0.039 0.16 0.054 0.051 0.121 0.106 0.199 0.161 0.16 0.078 0.359 0.117 0.602 0.117 0.238 0 0.437-0.039 0.597-0.117 0.16-0.082 0.242-0.188 0.242-0.321s-0.082-0.242-0.242-0.32c-0.16-0.082-0.359-0.121-0.597-0.121-0.243 0-0.442 0.039-0.602 0.121-0.078 0.055-0.145 0.105-0.199 0.16zm-3.723 18.719c0.535 0 1.336-0.348 2.402-1.039-0.613-0.426-1.054-0.668-1.32-0.719-0.508-0.137-1.414-0.16-2.719-0.082l0.52 0.922c0.426 0.613 0.801 0.918 1.117 0.918zm-13.277-7.918c-0.133 0-0.254 0.023-0.36 0.078-0.109 0.082-0.16 0.172-0.16 0.281 0 0.106 0.051 0.184 0.16 0.239 0.106 0.082 0.227 0.121 0.36 0.121s0.254-0.039 0.359-0.121c0.106-0.055 0.16-0.133 0.16-0.239 0-0.109-0.054-0.199-0.16-0.281-0.105-0.055-0.226-0.078-0.359-0.078zm7.879-1.84c0.668 0.984 2.015 1.758 4.039 2.316-0.879-1.652-1.531-2.679-1.957-3.078-0.563-0.535-1.414-0.746-2.563-0.64 0.028 0.027 0.188 0.492 0.481 1.402zm-19.16-10.883c-0.239-0.801-0.575-1.597-1-2.398-0.532-1.016-1.012-1.574-1.442-1.68l-0.598-0.242c0.079 0 1.305 0.359 3.68 1.082l0.36 0.277c-0.454-0.664-2.665-2.359-6.641-5.078-4.16-2.828-6.664-4.238-7.52-4.238-0.32 0-0.519 0.012-0.597 0.039l-0.043 0.078-0.36 0.281c0.266 0.348 1.161 1.282 2.68 2.801l0.121 0.36c-1.84-1.067-3.414-1.934-4.719-2.598-0.988-0.508-1.839-0.895-2.562-1.16 0.266 0.16 0.426 0.343 0.48 0.558-0.16 0.641-0.238 1.028-0.238 1.16 0 0.586 0.625 1.372 1.879 2.36 1.254 1.012 1.879 1.547 1.879 1.597 0 0.348-0.078 0.618-0.238 0.801-0.215 0.188-0.387 0.348-0.52 0.481 0.774 0.027 2.547-0.078 5.32-0.321 1.094 0 2.051 0.469 2.879 1.403 1.2 1.41 1.825 2.133 1.879 2.16 0.028 0.023 0.668 0.144 1.922 0.359 1.172 0.211 2.172 0.692 3 1.438l0.399 0.48zm-27.04-6.199c0.586 0.453 1.692 0.332 3.321-0.359-0.082-0.16-0.321-0.336-0.723-0.52-0.586-0.242-1.316-0.375-2.199-0.402l-1 0.203c0.109 0.078 0.309 0.437 0.601 1.078z" inkscape:connector-curvature="0"/>
      <path id="path16" style="fill-rule:evenodd;fill:#a39a90" d="m127.24 13.719c-2.476 0.668-4.492 1.883-6.039 3.641-0.453 0.507-1.707 2.375-3.758 5.597-3.629 5.762-9.308 10.149-17.043 13.16 1.364 2.321 3.442 5.524 6.243 9.602 1.972 2.856 3.226 5.027 3.757 6.52l1.801 1c1.414-0.399 2.442-0.598 3.082-0.598 0.774 0 2.012 0.625 3.719 1.879 0.535 0.398 2.895 2.254 7.078 5.558 0.16 0.082 0.762 0.2 1.801 0.36 1.043 0.16 1.762 0.242 2.16 0.242 1.121 0 10.867-3.082 29.242-9.242 15.84-5.305 29.492-9.973 40.957-14-4.476 0.453-7.879 0.746-10.199 0.883-1.547 0.078-2.48 0.132-2.801 0.16l0.321-0.121c0.187-0.028 0.961-0.282 2.32-0.762 1.492-0.531 2.414-0.891 2.762-1.078-0.161-0.16-0.883-0.563-2.161-1.199 0-0.055 0.161-0.176 0.481-0.364 0.293-0.183 0.437-0.437 0.437-0.757-1.625-2.266-3.132-3.907-4.519-4.918l0.441-0.204c5.282-0.453 9.453-1.199 12.52-2.238 2.265-0.746 6.055-1.121 11.359-1.121 0.696 0 1.602 0.188 2.723 0.563 1.25 0.425 2.238 0.933 2.957 1.519l-0.039-0.16c-0.188-0.402-0.414-0.734-0.68-1-0.375-0.586-0.828-1.293-1.359-2.121-0.856-1.36-1.387-2.266-1.602-2.719-0.32-0.535-0.734-1.055-1.238-1.559l-0.242 0.239c-0.426 0.719-0.946 1.375-1.559 1.961l-0.562 0.398c-0.719 0.402-1.664 0.641-2.84 0.719l0.922-0.598c-3.094 0.133-5.696 0.145-7.801 0.039 0-0.265 0.027-0.508 0.082-0.718 0.504-0.508 1.559-0.961 3.16-1.36 1.305-0.347 2.289-0.519 2.957-0.519 1.36 0 2.574 0.425 3.641 1.277l1.199-1.359 0.082-0.559-4.32-1.719c-0.828 1.145-1.801 1.719-2.918 1.719 0.316-0.828 0.597-1.652 0.84-2.48-2.454-0.829-5.79-1.879-10-3.161-0.243 0.321-0.575 0.625-1 0.922-0.856 0.614-1.79 0.93-2.801 0.957l-1 0.082c0.105-0.082 1.226-0.867 3.359-2.359-1.332-0.348-3.801-0.816-7.398-1.402-3.282-0.532-5.082-0.801-5.403-0.801-4.265 0-9.011 0.855-14.238 2.562-5.254 1.735-8.562 2.598-9.922 2.598-0.961 0-4.426-0.359-10.398-1.078-6.801-0.828-11.336-1.332-13.602-1.52 0.16 1.172 0.309 1.961 0.442 2.36 0.293 0.906 0.8 1.625 1.519 2.16l0.281 0.601c-0.828-0.429-2.066-1.253-3.718-2.484-1.817-1.332-2.977-2.332-3.485-3zm76.524 10.238c0.504 0 1.066 0.082 1.679 0.243 0.692 0.214 1.145 0.453 1.36 0.718l-10.403 0.801c0.614-0.586 1.856-1.051 3.723-1.398 1.387-0.243 2.598-0.364 3.641-0.364zm-41 23.321c0.238-0.161 0.703-0.36 1.398-0.598 0.668-0.242 1.094-0.348 1.281-0.32l0.84 0.16c0 0.133-0.32 0.305-0.961 0.519-0.64 0.188-1.16 0.282-1.558 0.282l-1-0.043zm14.476-13.84c0-0.238 0.227-0.438 0.684-0.598 0.398-0.16 0.824-0.242 1.277-0.242 0.801 0 1.442 0.387 1.922 1.16 0.266 0.399 0.465 0.828 0.602 1.281l-1.043 0.282c-1.305-0.614-2.453-1.243-3.438-1.883h-0.004zm-0.117 6.121c-0.828 0-1.254-0.012-1.281-0.039 0.851-0.563 1.867-0.668 3.039-0.32 0.266 0.078 1.133 0.48 2.601 1.199-1.839-0.559-3.292-0.84-4.359-0.84zm7.039-6.961c-0.508 0.215-1.121 0.32-1.84 0.32-0.718 0-1.332-0.105-1.84-0.32-0.507-0.211-0.761-0.481-0.761-0.797 0-0.32 0.254-0.59 0.761-0.801 0.508-0.215 1.118-0.32 1.84-0.32 0.719 0 1.332 0.105 1.84 0.32 0.508 0.211 0.762 0.481 0.762 0.801 0 0.316-0.254 0.586-0.762 0.797zm-1.359 5.203c1.277-0.082 2.347-0.109 3.199-0.082-1.332 0.453-2.602 0.641-3.801 0.559l-1.398-0.239c0-0.105 0.664-0.187 2-0.238zm-37.082 7.637h-3.52v-1h3.52v1zm-9.199 7.363c-0.641 0.453-0.973 0.691-1 0.719-0.188 0.133-0.508 0.199-0.961 0.199-3.891-0.641-6.133-1.16-6.719-1.559 0.586-0.855 2.547-1.988 5.883-3.402 1.089 0 2 0.281 2.718 0.84 0.692 0.535 1.039 1.16 1.039 1.883 0 0.32-0.32 0.758-0.96 1.32zm5.402-2.242c-0.59 0.695-1.723 1.039-3.402 1.039-0.266 0-1.52-1.414-3.758-4.238 2.05-0.106 4.09-0.254 6.117-0.442 1.043 0.055 1.559 0.657 1.559 1.801 0.003 0.828-0.172 1.441-0.516 1.84zm3-16.039v-0.52c0.078-0.242 0.238-0.441 0.476-0.601l0.801-0.078c0.535 0 0.828 0.093 0.879 0.281 0 0.265-0.355 0.492-1.078 0.68l-1.078 0.238zm-10.203 1.719c-0.907-0.668-1.36-1.481-1.36-2.438 0-0.961 0.453-1.777 1.36-2.441 0.883-0.668 1.961-1 3.242-1 1.277 0 2.371 0.332 3.277 1 0.883 0.664 1.321 1.48 1.321 2.441 0 0.957-0.438 1.77-1.321 2.438-0.906 0.668-2 1-3.277 1-1.281 0-2.359-0.332-3.242-1zm25.961-9.961c0.242-0.321 0.558-0.664 0.961-1.039 0.214-0.215 0.347-0.414 0.398-0.598-0.16-0.188-1.117-0.363-2.879-0.524-2.027-0.132-3.48-0.371-4.359-0.718 0.398-0.266 0.679-0.547 0.84-0.84-1.067-0.453-3.282-0.813-6.641-1.078-3.309-0.27-5.227-0.535-5.762-0.801 0.348-0.027 3.11-0.426 8.282-1.199 4.96-0.723 7.668-1.082 8.121-1.082 3.918 0 7.082-0.36 9.48-1.082 2.399-0.692 3.973-1.039 4.719-1.039 0.375 0 0.625 0.039 0.762 0.121 0.132 0.078 0.226 0.226 0.277 0.441l-0.238 0.758c-4.375 3.519-6.786 5.492-7.243 5.918 1.227 1.121 2.707 2.215 4.442 3.281 2.535 1.602 3.894 2.469 4.082 2.602l-0.883-0.282c-2.93-0.664-5.598-1.21-8-1.636-2.613-0.453-4.73-0.856-6.359-1.203zm-10.918 6.121 0.039 0.199c-0.055 0.187-0.563 0.336-1.52 0.441-0.988 0.133-1.492 0.039-1.519-0.281 0.316-0.133 0.812-0.238 1.48-0.32 0.664-0.078 1.172-0.094 1.52-0.039zm-15.52-5.039 2.76-0.321c1.68 0 2.945 0.282 3.801 0.84 1.359 0.906 2.387 2.68 3.078 5.321-0.957-1.227-2.211-2.426-3.758-3.598-2.215-1.629-4.176-2.375-5.883-2.242zm47.524-2.68 0.515 1.039c-2.906-0.215-4.769-0.48-5.597-0.801-0.481-0.183-0.852-0.597-1.121-1.238 0.082-0.426 0.242-0.695 0.48-0.801 0.402-0.238 1.199-0.308 2.402-0.199-0.027-0.027-0.175-0.133-0.441-0.32-0.055-0.028-0.078-0.2-0.078-0.52 0-0.238 1.09-0.601 3.277-1.082 2.348-0.531 4.348-0.801 6-0.801 1.067 0 1.934 0.348 2.602 1.043 0.371 0.399 0.801 1 1.277 1.801-1.066 1.227-1.863 1.84-2.398 1.84-0.508 0-1.239-0.293-2.2-0.883-1.121-0.641-2.332-1.066-3.64-1.277 0.613 1.066 1.039 1.879 1.281 2.437h-2.121l-0.238-0.238zm9.039-5.082c-2.989-1.117-4.535-1.785-4.641-2 0.852-0.371 1.531-0.559 2.039-0.559 0.563 0 1.039 0.149 1.442 0.442 0.05 0.023 0.347 0.304 0.879 0.84 0.269-0.586 0.507-0.95 0.718-1.082 0.11-0.082 0.227-0.122 0.364-0.122 0.398 0.297 0.757 0.762 1.078 1.403l-1.879 1.078zm-8.922-10.16 0.441 0.043-0.359-0.043h-0.082zm-76.481 59.363h-3.398v1.277h3.398v-1.277zm12.563-26.523c-0.375 0.187-0.816 0.281-1.32 0.281-0.508 0-0.95-0.094-1.321-0.281-0.375-0.161-0.558-0.36-0.558-0.598 0-0.242 0.183-0.453 0.558-0.641 0.375-0.16 0.813-0.238 1.321-0.238 0.507 0 0.945 0.078 1.32 0.238 0.371 0.188 0.559 0.399 0.559 0.641 0 0.238-0.188 0.437-0.559 0.598zm3-1.797c-0.027 0.238-0.309 0.386-0.84 0.437-0.562 0.055-1.094-0.051-1.601-0.32l0.32-0.32c0.32-0.106 0.719-0.184 1.199-0.239 0.563 0.055 0.867 0.2 0.922 0.442zm-36.921 26.797c0.883 0.297 2.867 0.656 5.961 1.082-2.266-1.227-3.535-1.907-3.801-2.039-0.64-0.297-1.238-0.442-1.801-0.442l-0.796 0.16c-0.137 0.078-0.204 0.293-0.204 0.641 0 0.238 0.215 0.437 0.641 0.598zm2-9.039c0-0.774-0.133-1.305-0.398-1.598-0.215-0.242-0.563-0.363-1.039-0.363-0.348 0-0.614 0.027-0.801 0.082-0.055 0.027-0.215 0.121-0.481 0.281 0.078 0.238 0.973 1.133 2.68 2.68l0.039-1.082zm-25.559-22.481c-1.015-0.641-2.175-1.238-3.48-1.801-1.441-0.613-2.48-0.89-3.121-0.84-0.613-0.238-0.918-0.089-0.918 0.442 0 0.988 0.719 2.066 2.16 3.242 2.371 1.973 6 2.891 10.879 2.758-0.055-0.586-0.094-0.906-0.121-0.961-0.106-0.293-0.387-0.586-0.84-0.879l0.68 0.801c-1.387-0.028-2.492-0.149-3.321-0.36-0.906-0.32-1.746-0.574-2.519-0.761 0.055-0.801 0.254-1.348 0.601-1.641zm13.282 6.68-0.801-0.278c-0.563 0-0.988 0.145-1.281 0.438l-0.078 0.441 2.117 0.52c0-0.078 0.093-0.293 0.281-0.641 0.055-0.343-0.027-0.504-0.238-0.48zm-6.364 5.121-1.476-0.32c-0.961-0.079-1.977-0.055-3.043 0.082 0 0.027-0.067 0.093-0.199 0.199-0.133 0.078-0.2 0.281-0.2 0.597 0 0.59 0.415 1.137 1.239 1.641 0.906 0.535 2.109 0.867 3.601 1h3.481c-0.082-0.398-0.469-0.973-1.16-1.719-0.801-0.879-1.547-1.375-2.243-1.48zm-0.597-2.399c-0.028-0.054-0.039-0.109-0.039-0.16 0-0.054 0.011-0.109 0.039-0.16-0.055-0.133-0.149-0.254-0.281-0.359-0.239-0.137-0.52-0.203-0.84-0.203-0.321 0-0.586 0.066-0.801 0.203-0.238 0.16-0.359 0.332-0.359 0.519 0 0.184 0.121 0.348 0.359 0.481 0.215 0.16 0.48 0.238 0.801 0.238 0.32 0 0.601-0.078 0.84-0.238 0.132-0.082 0.226-0.188 0.281-0.321zm29.16-11.96c0.133-0.11 0.293-0.227 0.48-0.36l-0.242 0.16-0.238 0.2zm10.117-4.52 0.684-0.359-0.481 0.238-0.203 0.121zm-52.318 26.121c0.316 0.106 1.703 0.84 4.16 2.199l1.68 0.16c-1.067-1.679-1.84-2.761-2.321-3.242-0.508-0.504-1.093-0.758-1.761-0.758-0.586 0-1.321 0.321-2.2 0.957 0.106 0.27 0.254 0.497 0.442 0.684zm-23.481-10.961c0.531 0 1.067-0.359 1.598-1.082-0.641-1.414-1.934-2.504-3.879-3.277-1.945-0.774-2.922-0.535-2.922 0.719 0 0.96 0.856 1.851 2.563 2.679 0.851 0.399 1.734 0.719 2.64 0.961z" inkscape:connector-curvature="0"/>
      <path id="path18" style="fill-rule:evenodd;fill:#635b52" d="m216.16 26.641c0.266 0.266 0.492 0.598 0.68 1 0.027-0.617 0.238-2.094 0.64-4.441 0.348-2.161 0.52-3.668 0.52-4.52-2.906-5.734-4.801-8.773-5.68-9.121-0.558-0.238-1.242-0.414-2.043-0.52-0.718-0.082-1.117-0.132-1.199-0.16-0.316-0.105-1.332-0.558-3.039-1.359-0.238-0.106-0.453-0.199-0.641-0.281-1.253-0.559-1.906-0.868-1.96-0.918 0.402 0.824 1.867 3.546 4.402 8.16-0.695-0.11-1.188-0.188-1.481-0.242-0.507-0.051-0.761 0.082-0.761 0.402 0 0.316-0.106 0.48-0.321 0.48l-0.355-0.082c0.266 0.481 0.355 1.52 0.277 3.121l0.403-0.519c0.453-0.617 0.945-1.32 1.476-2.121l0.524 0.32 0.039 0.277c-0.055 0.375-0.188 0.75-0.403 1.122 0.668 0.293 1.551 0.785 2.641 1.48 1.254 0.773 1.629 1.121 1.121 1.039l-0.078 0.563 0.797 0.16 0.242-0.242c0.504 0.507 0.918 1.027 1.238 1.562 0.11-0.457 0.348-1.16 0.723-2.121 0.344-0.855 0.613-1.469 0.797-1.84 1.043 2.348 1.558 4.746 1.558 7.199l-0.117 1.602zm-20.84-24.723-1.92-0.16c0.27 0.402 0.524 1.043 0.762 1.922 0.215 0.906 0.332 1.773 0.36 2.598 0.054 1.363 0.082 2.8 0.082 4.32l0.199 0.203c0.531-0.91 0.867-1.309 1-1.203l0.32-0.879 0.078-0.602c0.055-2.132 0.188-3.48 0.403-4.039-0.028 0.266 0.503 1.321 1.597 3.161 0.426-0.536 0.653-0.801 0.68-0.801v-2.758c-0.05-0.055-0.12-0.094-0.2-0.121l-0.559-0.32c-1.2-0.641-2.13-1.079-2.8-1.321zm-61.16-1.238-0.84-0.281-0.2-0.039-0.32-0.039c0.238 0.586 0.719 1.636 1.437 3.16 0.297 0.691 0.563 1.437 0.801 2.238l-0.12-1.238c-0.11-0.723-0.36-1.989-0.76-3.801zm2.238 0.918c1.79 0.773 3.043 1.934 3.762 3.48 0.586 1.227 0.762 2.493 0.52 3.801 0.851-0.078 1.398 0.012 1.64 0.281 0.16 0.161 0.239 0.508 0.239 1.04 0 0.32-0.012 0.574-0.039 0.757l-0.082 0.16c-0.958 0.083-4.411 0.375-10.36 0.883 1.067 0.051 10.055 0.801 26.961 2.239-0.375-0.747-0.734-2.161-1.078-4.239-0.188-1.043-0.336-2.015-0.441-2.922 0-1.304 0.292-2.238 0.878-2.796 0.403-0.375 1.055-0.641 1.961-0.801l-1.519 0.078-4.961 0.359-0.52 0.16-0.16 0.043-0.32 0.239c0.055 0.109 0.348 0.414 0.883 0.922 0.453 0.425 0.679 0.839 0.679 1.238 0 0.293-0.027 0.508-0.082 0.64-0.078 0.133-0.117 0.254-0.117 0.36-0.269 0.16-0.668 0.238-1.203 0.238-0.56-0.078-1.16-0.277-1.8-0.598-1.25-0.691-2.21-1.734-2.88-3.121l-1.04-0.078c-1.758 0-4.082-0.386-6.961-1.16-2.558-0.773-3.879-1.176-3.961-1.203zm-10.4 6.043c0.398 0.586 0.68 1.172 0.84 1.758 0.586 1.254 0.906 1.867 0.961 1.84 1.011 2 1.867 3.187 2.558 3.562l0.2-0.121c0.132-0.16 0.214-0.414 0.242-0.762 0-0.027-0.403-1.066-1.199-3.117-0.536-1.387-0.801-2.949-0.801-4.684-0.563-2.878-1.176-4.89-1.84-6.039-0.988 0.11-2.469 0.426-4.441 0.961l0.039 0.039 0.8 0.922c0.719 1.547 1.442 3.106 2.161 4.68 0.16 0.348 0.32 0.664 0.48 0.961zm-29.801 25.359c-0.531-3.015-0.801-5.148-0.801-6.402 0-0.184 0.067-1.066 0.204-2.641 0.105-1.437 0.144-2.332 0.117-2.679-0.934-1.918-3.879-4.465-8.84-7.641 0.187 0.719 0.773 1.84 1.762 3.363 1.707 2.586 2.679 4.067 2.918 4.438 2.48 4.187 3.402 7.894 2.761 11.121-0.293 1.519 0.305 3.598 1.801 6.238 1.52 2.719 3.199 4.574 5.039 5.559h-0.398c-2 0.269-5.242-0.918-9.723-3.559-5.25-3.094-8.586-4.824-10-5.199 3.949 3.172 8.84 6.934 14.68 11.281 4.187 3.117 10.109 7.918 17.761 14.399l0.442 0.879c0.133-0.321 0.746-1.36 1.84-3.118 1.066-1.734 1.691-2.722 1.879-2.961l-1.161-0.562-4.64 3.601c-0.133-0.746-0.199-1.332-0.199-1.761l0.519-1.598c0.375-1.121 0.641-1.828 0.801-2.121l-0.762-0.398-1.797-1c-0.668-0.719-2.828-3.586-6.48-8.598-3.36-4.668-6.121-8.016-8.281-10.043l0.322-0.398 0.238-0.2zm-49.558-27.601c0.691 0.453 1.773 0.652 3.238 0.601 0.746 0.024 1.68-0.043 2.801-0.199 0.718 0.051 1.082 0.68 1.082 1.879 0 1.254-0.094 2.398-0.282 3.437 0.719 0 1.332-0.449 1.84-1.359 0.481-0.879 0.719-1.957 0.719-3.238l0.121-1.442c-3.519 0.055-6.695 0.161-9.519 0.321zm-34.922 21.402c1.121-0.269 2.242-0.496 3.359-0.684-1.144-2.238-2.117-4.304-2.918-6.199-0.293 3.469-0.441 5.762-0.441 6.883zm-1.16-16.043h0.121c0.64 0 1.187 0.176 1.64 0.52 0.508 0.242 1.239 0.91 2.2 2 1.199 1.336 1.867 2.535 2 3.601l0.199 1.039c0.32-1.066 0.535-2.679 0.64-4.84l0.121-2.238 0.04-1.16-6.961 1.078zm20.761-3.238c0.106 2 0.188 3.172 0.239 3.519 0.082 0.453 0.336 1.215 0.761 2.282l0.2-0.52c0-0.055 0.214-1.215 0.64-3.48 0.188-1.067 0.414-1.817 0.68-2.243l-0.762-0.039h-1.078l-0.68 0.481zm-4.441 1.558 1.043 2.762 0.359-0.519c0.266-0.774 0.414-1.469 0.438-2.082l-0.321 0.199-0.039-0.039-1.48-0.321zm-18.758 2.442 0.438-0.442c-1.438 0.243-2.547 0.735-3.321 1.481 0.137 0.215 0.387 1.027 0.762 2.441 0.375 1.36 0.574 2.16 0.602 2.399 0.105-0.266 0.359-1.254 0.757-2.957 0.375-1.657 0.629-2.629 0.762-2.922zm114.36 46.961-1.16-0.563c-0.531 1.227-1.574 2.68-3.121 4.36-1.492 1.629-2.652 2.601-3.476 2.922l0.078 5.039c1.945-2.532 3.375-4.321 4.281-5.36 0.133-0.215 1.266-2.347 3.398-6.398zm78.36-43.922 3.961 1.601 0.121-1.519-3.043 0.039-1.039-0.121zm-171.4 8.32c-0.375-1.707-0.629-3.066-0.761-4.078-0.16-1.254-0.254-2.988-0.282-5.203l-0.039 1.242c-0.16 1.438-0.464 3.414-0.918 5.918-0.613 3.199-1 5.309-1.16 6.32 0.453 0.133 4.625 1.321 12.52 3.559-3.309-1.867-5.176-2.906-5.602-3.117-0.16-0.11-0.734-0.469-1.719-1.082l-1.039-0.438c-0.296-0.109-0.519-0.601-0.679-1.484-0.082-0.449-0.137-0.879-0.16-1.277v-0.039l-0.161-0.321zm23 1.399c-0.695-0.692-1.136-1.133-1.32-1.321-0.242-0.211-0.519-0.316-0.84-0.316-0.562-0.027-1.16 0.027-1.801 0.16-1.253 0.293-2.175 0.824-2.761 1.598l0.722 0.281 6-0.402zm8.68-9.36c0.051-0.265 0.133-0.664 0.238-1.199 0.106-0.48 0.055-0.894-0.16-1.238-0.027 0.879-0.054 1.691-0.078 2.437zm6.68 14.082c-1.336-2.668-2.613-4.91-3.84-6.722-1.789-2.614-2.75-4.719-2.883-6.321-0.051 1.629-0.09 2.883-0.117 3.762-0.106 2.453-0.734 4.16-1.883 5.121 0.883-0.027 2.469 0.586 4.762 1.84 1.199 0.664 2.519 1.437 3.961 2.32zm14.879-7.082c0-2.586-0.387-4.16-1.16-4.718-0.641-0.481-2.387-0.719-5.239-0.719-0.508 0-1 0.121-1.48 0.359l0.801 0.16c4.05 0.266 5.839 3.614 5.359 10.039 1.144-1.601 1.719-3.308 1.719-5.121z" inkscape:connector-curvature="0"/>
      <path id="path20" style="fill-rule:evenodd;fill:#7c7367" d="m203.44 6.321-0.679-0.442-3.883-2.199v2.758c-0.027 0-0.254 0.269-0.68 0.801-1.094-1.84-1.625-2.895-1.601-3.161-0.211 0.563-0.344 1.907-0.399 4.039 0.293-0.585 0.774-0.929 1.442-1.039 0 0.188 0.05 0.508 0.16 0.961 0.078 0.453 0.117 0.828 0.117 1.118 0 0.8-0.078 1.628-0.238 2.484-0.426 0.238-0.856 0.398-1.282 0.476-0.132-0.746-0.16-1.718-0.078-2.917 0.078-1.122 0.012-1.282-0.203-0.481l-0.32 0.883c-0.133-0.11-0.465 0.289-1 1.199l-0.199-0.199-0.039 1.199-0.161 0.481c0.055 0.16-0.054 0.359-0.32 0.597-0.371 0.321-0.68 0.602-0.918 0.84-2.133 1.496-3.254 2.281-3.359 2.359l1-0.078c1.011-0.027 1.945-0.347 2.797-0.961 0.429-0.293 0.761-0.597 1-0.918 0.242-0.507 0.535-1 0.882-1.48 1.758 0.586 3.239 1.105 4.442 1.559 0.824 0.105 1.476 0.265 1.957 0.48l3.043-0.039-0.121 1.519-0.199 1.118c-0.243 0.828-0.524 1.656-0.84 2.48 1.117 0 2.09-0.57 2.918-1.719l0.558-0.8c0.215-0.372 0.348-0.747 0.403-1.118l-0.043-0.281-0.52-0.32c-0.531 0.801-1.023 1.508-1.48 2.121l-0.399 0.519c0.078-1.601-0.011-2.64-0.281-3.121l0.359 0.082c0.215 0 0.321-0.16 0.321-0.48s0.254-0.453 0.761-0.402c0.293 0.054 0.786 0.132 1.481 0.242-2.531-4.614-4-7.336-4.399-8.16zm-11.04-4.641-3.08-0.16c0.106 0.082 0.614 0.492 1.52 1.238 1.148 0.961 2.371 2.133 3.68 3.52-0.028-0.825-0.149-1.692-0.36-2.598-0.238-0.879-0.492-1.52-0.762-1.922l-1-0.078zm-7.72-0.199c0 1.625 0.16 3.011 0.48 4.16 0.32 1.172 0.707 1.758 1.16 1.758s0.84-0.586 1.16-1.758c0.321-1.149 0.465-2.535 0.442-4.16h-3.242zm-8.84 0.437c0 0.801 0.066 1.481 0.199 2.039 0.133 0.563 0.309 0.934 0.52 1.121 0.214 0.188 0.414 0.149 0.601-0.121 0.188-0.265 0.348-0.718 0.481-1.355 0.105-0.617 0.148-1.215 0.121-1.801l-1.922 0.117zm-48.602 11.801c0.508 0.668 1.668 1.668 3.485 3 1.652 1.227 2.89 2.055 3.718 2.481l-0.281-0.598c-0.719-0.535-1.226-1.254-1.519-2.16-0.133-0.403-0.282-1.188-0.442-2.364l-0.12-2.078c5.949-0.508 9.402-0.8 10.363-0.883l0.079-0.16c0.027-0.183 0.042-0.437 0.042-0.757 0-0.532-0.082-0.879-0.242-1.04-0.242-0.269-0.785-0.359-1.64-0.281 0.242-1.308 0.066-2.574-0.52-3.801-0.719-1.546-1.972-2.707-3.758-3.48l-2.24-0.918c0.402 1.812 0.652 3.078 0.762 3.801l0.117 1.238c-0.24-0.801-0.5-1.547-0.8-2.238-0.72-1.524-1.2-2.574-1.44-3.16l-0.24-0.082-0.6-0.122c-0.48-0.05-1.29-0.089-2.44-0.117-1.172 0-2.028 0.028-2.559 0.078 0.664 1.149 1.277 3.161 1.84 6.043 0 1.731 0.265 3.293 0.801 4.68 0.796 2.051 1.199 3.094 1.199 3.117-0.028 0.348-0.11 0.602-0.242 0.762l-0.2 0.121c-0.691-0.375-1.547-1.562-2.558-3.562-0.055 0.027-0.375-0.586-0.961-1.84 0.055 0.293 0.082 0.586 0.082 0.883 0 0.453-0.176 0.773-0.52 0.957-0.507 0.269-0.933 0.75-1.281 1.441 0.453-0.188 1.027-0.375 1.719-0.559-0.028 0.45 0.109 0.985 0.402 1.598h-0.004zm51.801-4.121c-2.078-0.453-3.437-0.68-4.078-0.68-2.586 0-4.883 0.586-6.883 1.762-2.023 1.172-3.84 1.758-5.437 1.758-0.375 0-0.774-0.531-1.203-1.598-0.344-0.91-0.516-1.484-0.516-1.723 0-0.773 0.68-1.574 2.039-2.398 1.519-0.961 2.453-1.949 2.801-2.961-0.11-0.32-0.309-0.508-0.602-0.558-0.293-0.083-0.707-0.122-1.238-0.122l-2.684 0.243c-0.293 0.05-0.586 0.105-0.879 0.16-0.906 0.16-1.558 0.426-1.961 0.797-0.586 0.562-0.878 1.496-0.878 2.8 0.105 0.907 0.253 1.879 0.441 2.922 0.344 2.078 0.703 3.492 1.078 4.239 1.094-0.028 4.652-0.786 10.68-2.282 3.043-0.769 6.148-1.558 9.32-2.359zm-25.68-5.52 0.481-0.16-4.117 0.082-1.364 0.039c0.668 1.387 1.629 2.426 2.883 3.121 0.637 0.321 1.238 0.52 1.797 0.598 0.535 0 0.934-0.078 1.203-0.238 0-0.106 0.039-0.227 0.117-0.36 0.055-0.132 0.082-0.347 0.082-0.64 0-0.403-0.226-0.813-0.679-1.242-0.535-0.504-0.828-0.813-0.883-0.918l0.32-0.243 0.16-0.039zm-41.88 21.039c2.082-0.929 4.215-2.679 6.399-5.238 2.961-3.465 4.668-5.398 5.121-5.801-0.879 0.293-1.426 0.454-1.641 0.481-0.105 0.16-0.453 0.148-1.039-0.039-0.265 0.133-1.32 1.359-3.16 3.68-2.535 3.171-4.426 5.48-5.68 6.917zm14.52-17.476c-0.16-0.297-0.32-0.617-0.48-0.961-0.72-1.574-1.44-3.133-2.16-4.68l-0.8-0.922-0.039-0.039-4.399 1.239c-0.586 0.8-1.414 1.668-2.48 2.601 1.652-0.293 3.226-0.441 4.718-0.441 1.735 0 3.293 0.707 4.68 2.121 0.375 0.375 0.695 0.734 0.961 1.082zm-17.641 4.719c1.442 0 2.68 0.359 3.719 1.082 1.016 0.718 1.52 1.597 1.52 2.636l0.043-0.039 0.078-0.082c0.109-1.066 0.121-2.476 0.043-4.238-0.055-1.762-0.176-3.172-0.364-4.238-0.023 0.183-0.25 0.519-0.679 1-0.797 0.933-2.281 2.226-4.438 3.879h0.078zm-40.559 16.64c1.547 0.825 4.293 1.934 8.238 3.317 2.43 0.855 4.094 1.949 5 3.281 1.414 0.375 4.75 2.109 10 5.203 4.481 2.637 7.723 3.824 9.723 3.559h0.398c-1.84-0.989-3.519-2.84-5.039-5.559-1.496-2.641-2.094-4.723-1.801-6.242 0.641-3.227-0.281-6.934-2.761-11.117-0.239-0.375-1.211-1.856-2.918-4.442-0.989-1.519-1.575-2.64-1.762-3.359-2.078-0.988-4.012-1.789-5.801-2.402-4.957-1.707-7.758-2.68-8.398-2.918l-1.16 0.398 0.199-0.758c-0.024-0.082-0.68-0.347-1.957-0.801-1.176-0.425-1.907-0.679-2.203-0.757-1.571-0.59-2.825-0.977-3.758-1.161-1.469-0.269-4.016-0.32-7.641-0.16l-0.121 1.438c2.16 0.402 3.496 2.039 4 4.922 0.348 2.105 0.281 3.961-0.199 5.558 0.375 1.332 0.426 2.758 0.16 4.282-0.293 1.734-0.945 2.851-1.961 3.359l1.039 0.199c1.149-0.961 1.777-2.668 1.883-5.121 0.027-0.879 0.066-2.133 0.117-3.758 0.137 1.598 1.094 3.707 2.883 6.321 1.227 1.812 2.504 4.05 3.84 6.718zm4.64-9.961c1.946 0.133 3.211 0.493 3.797 1.078 1.84 1.84 3.309 4.43 4.403 7.762-2 1.227-4.879 0.613-8.641-1.84-3.52-2.293-5.281-4.066-5.281-5.32 0-0.531 0.562-1.48 1.679-2.84 0.723 0.641 2.067 1.028 4.043 1.16zm-7.203-2.359c-0.316 0-0.586-0.094-0.797-0.281-0.242-0.16-0.363-0.36-0.363-0.598 0-0.242 0.121-0.457 0.363-0.644 0.211-0.157 0.481-0.239 0.797-0.239 0.321 0 0.602 0.082 0.84 0.239 0.215 0.187 0.32 0.402 0.32 0.644 0 0.238-0.105 0.438-0.32 0.598-0.238 0.187-0.519 0.281-0.84 0.281zm-4.117-1.762c0.024-0.746 0.051-1.558 0.078-2.437 0.215 0.344 0.266 0.758 0.16 1.238-0.105 0.535-0.187 0.934-0.238 1.199zm-29.801-7.398-2.601 1.719c-0.024 0.613-0.172 1.308-0.438 2.082l-0.359 0.519-1.043-2.762-1.481-0.121c0.27 0.535 0.762 1.348 1.481 2.442 0.586 1.043 0.883 2.082 0.883 3.121 0 1.574-0.602 3.465-1.801 5.68-1.254 2.32-2.668 4.054-4.242 5.199l-0.239 0.16-0.519 0.281c0.879 0 2.652 0.414 5.32 1.238 0.16-1.011 0.547-3.121 1.16-6.32 0.454-2.504 0.758-4.48 0.918-5.918l0.039-1.238c0.028 2.211 0.122 3.945 0.282 5.199 0.132 1.012 0.386 2.371 0.761 4.078-0.054-1.199-0.253-3.199-0.601-6 0-2.531 0.082-4.078 0.238-4.64 0.16-0.614 0.617-0.918 1.363-0.918 0.532 0 0.957 0.398 1.278 1.199 0.269 0.613 0.656 1.988 1.16 4.121 0.027-0.27 0.016-1.629-0.039-4.082 0-2.746 1.441-4.399 4.32-4.957 0.879-0.188 2.332-0.414 4.36-0.684 1.921-0.316 3.546-0.812 4.878-1.48l-1.117 0.043c-3.226 0.32-5.894 0.664-8 1.039-1.519 0.293-2.336 0.453-2.441 0.48h-0.238l-0.762 0.078c-0.266 0.426-0.492 1.176-0.68 2.243-0.426 2.265-0.64 3.425-0.64 3.48l-0.2 0.52c-0.425-1.067-0.679-1.829-0.761-2.282-0.051-0.347-0.133-1.519-0.239-3.519zm-13.84 3.32-0.121 2.238 0.321 0.481v-0.84c-0.028-0.691-0.094-1.32-0.2-1.879zm-6.921-0.082-1.957 0.32-0.481 0.442c-0.133 0.293-0.387 1.265-0.762 2.918-0.398 1.707-0.652 2.695-0.757 2.961-0.028-0.239-0.227-1.039-0.602-2.399-0.375-1.414-0.625-2.226-0.762-2.441-2.398 1.894-3.785 3.348-4.16 4.359 0.641-0.211 1.402-0.32 2.281-0.32 1.121 0 1.879 0.082 2.282 0.242 0.531 0.211 0.972 0.707 1.32 1.481l0.359 0.597c0.028-2.531 0.547-4.504 1.559-5.918 0.933-1.332 2.082-1.906 3.441-1.718-0.453-0.348-1-0.524-1.64-0.524h-0.121zm1.16 16.043c0-1.121 0.148-3.414 0.441-6.883 0.801 1.895 1.774 3.961 2.918 6.199 1.469-0.183 3.094-0.277 4.883-0.277l-0.199-0.922c-3.735-0.851-5.75-1.519-6.043-2-0.211-0.293-0.481-2.84-0.797-7.64l-2.563 1-0.398 0.32 2.16 0.043c0.024-0.137 0.039 0.066 0.039 0.598 0 2.988-0.254 5.242-0.762 6.761-0.586 1.731-1.597 2.84-3.039 3.317-0.32-0.024-0.547-0.266-0.679-0.719-0.078-0.32-0.133-0.891-0.16-1.719l-1 1.36-0.04-1.719c-0.292 1.519-0.906 2.492-1.839 2.918-0.961 0.187-1.536 0.336-1.719 0.441-0.348 0.215-0.684 0.492-1 0.84-0.508 0.586-1.094 1.172-1.762 1.762l0.918 0.519c5.254-2.215 8.801-3.613 10.641-4.199zm201.48-5c0.215 0.449 0.746 1.356 1.602 2.719 0.531 0.824 0.984 1.531 1.359 2.117l0.117-1.598c0-2.453-0.515-4.855-1.558-7.199-0.184 0.371-0.453 0.985-0.797 1.84-0.375 0.961-0.613 1.664-0.723 2.121zm-2.277-1.48-1.203 1.359c-0.051 0.051-0.731 0.48-2.039 1.277l-0.922 0.602c1.176-0.078 2.121-0.32 2.84-0.719l0.562-0.398c0.613-0.59 1.133-1.242 1.559-1.961l-0.801-0.16h0.004zm-28.961-10.883 0.359 0.043 0.879 0.117c-0.187-1.199-0.426-2.426-0.719-3.68l-0.16-0.359c-0.082 1.574-0.199 2.867-0.359 3.879zm4.359 0.64-1.718-1.64c-0.75 0.562-1.204 0.949-1.364 1.16l3.082 0.48zm-150.08 15.243-2.117-0.082 0.199 0.121 1.918-0.039zm10.203-0.641-0.722-0.281c0.586-0.774 1.508-1.309 2.761-1.598 0.641-0.137 1.239-0.187 1.801-0.16 0.321 0 0.598 0.105 0.84 0.316 0.184 0.188 0.625 0.629 1.32 1.321 2 0.32 3.414 0.242 4.239-0.239 0.082-0.054 0.48-0.535 1.199-1.441-0.504 0.242-0.867 0.402-1.078 0.48-0.321 0.133-0.656 0.2-1 0.2-0.426 0-0.813-0.239-1.16-0.719-0.348-0.481-0.746-0.719-1.2-0.719-2.214 0-4.136 0.293-5.761 0.879-3.465 1.254-5.813 2.039-7.039 2.359l5.8-0.398zm67.957 38.961 0.122 0.559 0.199 1c0.828-0.321 1.988-1.293 3.48-2.922 1.547-1.68 2.586-3.133 3.121-4.36l-3.679-1.84c-0.188 0.243-0.817 1.227-1.883 2.961-1.094 1.762-1.707 2.801-1.84 3.121 0.16 0.454 0.32 0.946 0.48 1.481zm2.082-8.121-3.519-1.879c-0.16 0.293-0.426 1-0.801 2.117l-0.519 1.602c0 0.425 0.066 1.011 0.199 1.757l4.64-3.597zm-25.601-18.36c-1.574-1.656-2.414-2.535-2.52-2.64-0.32-0.348-0.785-1.094-1.398-2.242-0.723-1.278-1.082-2.172-1.082-2.68 0-0.797 0.32-1.398 0.961-1.797 0.398-0.242 0.762-0.363 1.082-0.363 0.504 0 1.223 1.082 2.156 3.242 0.91 2.105 1.602 4.254 2.082 6.437 0.559 1.364 0.133 1.375-1.281 0.043zm-4.559-13.601c-0.16 0.215-0.347 0.32-0.558 0.32-0.215 0-0.403-0.105-0.563-0.32-0.16-0.211-0.238-0.481-0.238-0.801 0-0.316 0.078-0.586 0.238-0.801 0.16-0.211 0.348-0.316 0.563-0.316 0.211 0 0.398 0.105 0.558 0.316 0.16 0.215 0.239 0.485 0.239 0.801 0 0.32-0.079 0.586-0.239 0.801zm-3.64-1.641c0 1.817-0.575 3.52-1.719 5.121 0.48-6.425-1.309-9.773-5.359-10.039l-0.801-0.16c0.48-0.242 0.972-0.359 1.48-0.359 2.852 0 4.598 0.238 5.239 0.719 0.773 0.558 1.16 2.132 1.16 4.718zm24.961 5.641 0.078 0.242 2.961-1.801-0.442-1.043c-0.613-0.425-1.265-1.211-1.957-2.355-0.613-1.016-1.269-1.656-1.961-1.922-0.293-0.133-0.707-0.133-1.242 0l-0.598 0.238c0.028 0 0.36-0.039 1-0.117 0.559-0.055 0.84-0.094 0.84-0.121 0.559 0.562 0.918 1.109 1.078 1.641 0.297 0.851 0.375 2.597 0.243 5.238zm-5.68 2.68 0.16 0.242 1.559-0.68-0.442-1.883-0.117-0.039c-0.109 0.375-0.187 0.68-0.242 0.922-0.133 0.453-0.438 0.93-0.918 1.438zm-52.081-24.239c1.254 1.227 2.121 1.957 2.601 2.2-0.082 1.386-0.105 3.839-0.082 7.359 0.028-0.242 0.387-1.719 1.082-4.442 0.188-1.039 0.282-2.183 0.282-3.437 0-1.203-0.364-1.828-1.082-1.883-1.121 0.16-2.055 0.231-2.801 0.203z" inkscape:connector-curvature="0"/>
      <path id="path22" style="fill-rule:evenodd;fill:#b3aa9e" d="m114.52 64.2-0.68-1c-2.266-2.668-7.52-7.04-15.762-13.122-9.84-7.253-16.297-12.253-19.359-15-0.051-0.05-1.321-0.507-3.801-1.359-2.934-0.984-5.719-2.187-8.359-3.602-1.68-1.171-3.387-2.089-5.121-2.757-3.172-1.172-7.477-1.758-12.918-1.758-0.774 0-1.493 0.09-2.161 0.277-1.761 0.453-5.441 1.11-11.039 1.961 1.575 0.828 3.118 1.719 4.641 2.68 1.359 0.883 3.785 2.547 7.277 5l-0.8-0.52c-1.786-1.039-5.825-2.64-12.118-4.8-7.441-2.559-12.722-3.84-15.84-3.84-1.976 0-4.773 0.707-8.402 2.121-4.051 1.597-7.32 2.547-9.801 2.84l-0.277 0.117c7.145 5.308 12.641 8.789 16.48 10.441 1.227 0.535 3.161 1.305 5.797 2.321 2.801 1.093 5.75 2.414 8.844 3.96 5.199 2.586 11.426 6.747 18.68 12.481 2.558 2.023 4.613 3.426 6.16 4.199 2.105 1.067 4.293 1.598 6.559 1.598 0.535 0 2.906-0.199 7.121-0.598 0.48 0 1.613 0.078 3.398 0.238 1.973 0.188 3.465 0.36 4.481 0.52-0.082-0.023-0.454-0.293-1.122-0.797-0.691-0.562-1.132-0.934-1.32-1.121 0.906-0.133 1.574-0.199 2-0.199 1.043 0 1.949 0.265 2.723 0.797 0.265 0.16 1.172 0.906 2.719 2.242 2.425 0.558 5.773 1.48 10.039 2.758 4.265 1.066 8.734 1.601 13.402 1.601 0.211 0 1.266-0.16 3.16-0.48 2.344-0.375 4.238-0.758 5.68-1.16l-0.082-5.039-0.199-1zm-34.719-3.481c0.211 0.133 0.32 0.281 0.32 0.441 0 0.161-0.109 0.293-0.32 0.399-0.242 0.133-0.52 0.199-0.84 0.199s-0.586-0.066-0.801-0.199c-0.238-0.106-0.359-0.238-0.359-0.399 0-0.16 0.121-0.308 0.359-0.441 0.215-0.105 0.481-0.16 0.801-0.16s0.598 0.055 0.84 0.16zm34.597 2.922c-0.16-0.535-0.32-1.027-0.476-1.481l-0.442-0.882c0.348 0.746 0.653 1.535 0.918 2.363zm-1.437-10 3.519 1.879 1.161 0.558 3.679 1.84 1.16 0.563 3.598 1.597c-4.183-3.304-6.547-5.16-7.078-5.558-1.707-1.254-2.949-1.879-3.723-1.879-0.636 0-1.664 0.199-3.078 0.598l0.762 0.402zm94.277-36.402-0.558 0.8 4.32 1.719c0.508 0.082 0.133-0.266-1.121-1.039-1.094-0.691-1.973-1.187-2.641-1.48zm-3.476 6.718c-1.043 0-2.254 0.121-3.641 0.364-1.867 0.347-3.109 0.812-3.723 1.398l10.403-0.801c-0.215-0.265-0.668-0.504-1.36-0.718-0.613-0.161-1.175-0.243-1.679-0.243zm-9.16-9.84c4.21 1.282 7.546 2.336 10 3.161l0.199-1.118-3.961-1.601-0.918-0.359c-1.203-0.454-2.684-0.973-4.442-1.559-0.347 0.476-0.64 0.973-0.878 1.476zm-15.56-4.519c-3.172 0.801-6.277 1.586-9.316 2.359-6.028 1.496-9.59 2.254-10.684 2.282-16.91-1.438-25.89-2.188-26.96-2.239l0.121 2.078c2.266 0.188 6.801 0.696 13.602 1.52 5.972 0.719 9.437 1.082 10.398 1.082 1.36 0 4.668-0.867 9.922-2.602 5.227-1.707 9.973-2.558 14.238-2.558 0.321 0 2.121 0.265 5.403 0.801 3.597 0.586 6.066 1.05 7.398 1.398 0.238-0.238 0.547-0.519 0.918-0.84 0.27-0.238 0.375-0.441 0.32-0.601-0.05 0-2.746-0.731-8.078-2.2l-3.082-0.48h-0.039l-0.879-0.117-0.441-0.043c-0.934 0-1.879 0.054-2.84 0.16zm17.16-1.481-0.078 0.602c0.211-0.801 0.277-0.641 0.199 0.481-0.082 1.199-0.054 2.171 0.078 2.917 0.43-0.078 0.856-0.238 1.282-0.476 0.16-0.856 0.242-1.684 0.242-2.484 0-0.29-0.043-0.665-0.121-1.118-0.106-0.453-0.16-0.773-0.16-0.961-0.668 0.11-1.149 0.454-1.442 1.039zm-19.078 31.442c1.067 0 2.52 0.281 4.359 0.84-1.468-0.719-2.335-1.121-2.601-1.199-1.172-0.348-2.188-0.243-3.039 0.32 0.027 0.027 0.453 0.039 1.281 0.039zm0.117-6.121c0.989 0.64 2.137 1.269 3.442 1.883l1.043-0.282c-0.137-0.453-0.336-0.882-0.602-1.281-0.48-0.773-1.121-1.16-1.922-1.16-0.453 0-0.879 0.082-1.277 0.242-0.453 0.16-0.68 0.36-0.68 0.598h-0.004zm-40.72 19.363c0.64-0.562 0.96-1 0.96-1.32 0-0.723-0.347-1.348-1.042-1.883-0.719-0.559-1.626-0.84-2.719-0.84-3.332 1.414-5.293 2.547-5.879 3.402 0.586 0.399 2.824 0.918 6.719 1.559 0.453 0 0.773-0.066 0.961-0.199 0.027-0.028 0.359-0.266 1-0.719zm9.199-7.363v-1h-3.52v1h3.52zm-11-9.199c0.883 0.668 1.961 1 3.242 1 1.277 0 2.371-0.332 3.277-1 0.883-0.668 1.321-1.481 1.321-2.438 0-0.961-0.438-1.777-1.321-2.441-0.906-0.668-2-1-3.277-1-1.281 0-2.359 0.332-3.242 1-0.907 0.664-1.36 1.48-1.36 2.441 0 0.957 0.453 1.77 1.36 2.438zm10.2-1.719 1.08-0.242c0.719-0.184 1.078-0.411 1.078-0.68-0.051-0.184-0.344-0.281-0.879-0.281l-0.801 0.082c-0.24 0.16-0.4 0.359-0.48 0.601v0.52zm36.84-9.84c-0.028-0.027-1.137-0.695-3.321-2-1.203-0.109-2-0.039-2.402 0.199-0.238 0.106-0.398 0.375-0.48 0.801 0.269 0.641 0.64 1.051 1.121 1.238 0.828 0.321 2.691 0.586 5.597 0.801l-0.519-1.039h0.004zm8.758-6.359c-0.532-0.536-0.829-0.817-0.879-0.84-0.403-0.293-0.883-0.442-1.442-0.442-0.508 0-1.187 0.188-2.039 0.559 0.106 0.215 1.652 0.883 4.641 2 0-0.16-0.094-0.586-0.281-1.277zm-25-7.403c0.558-0.371 2.679-1.039 6.359-2-2.957 0.348-4.707 0.52-5.238 0.52l-3.602-1-0.199-0.039c0.348 1.359 0.547 2.148 0.598 2.359 0.082 0.215 0.601 0.32 1.562 0.32 0.215 0 0.387-0.05 0.52-0.16zm25.32-3.359c-0.188-0.215-0.399-0.32-0.641-0.32-0.238 0-0.437 0.105-0.597 0.32-0.188 0.215-0.282 0.48-0.282 0.801 0 0.32 0.094 0.586 0.282 0.8 0.16 0.211 0.359 0.321 0.597 0.321 0.242 0 0.453-0.11 0.641-0.321 0.16-0.214 0.238-0.48 0.238-0.8 0-0.321-0.078-0.586-0.238-0.801zm-169.92 18.281 0.558-0.281 0.239-0.16c-0.024-0.242-0.172-0.973-0.438-2.199-0.293-1.2-0.496-1.961-0.601-2.282-0.239 0.375-0.442 0.785-0.602 1.239-0.293 0.828-0.398 1.75-0.316 2.761l0.199 0.922h0.961zm8.68-2.601c0.023 0.402 0.078 0.828 0.16 1.281 0.16 0.879 0.383 1.371 0.679 1.48-0.429-0.613-0.707-1.535-0.839-2.761zm4.718 2.121-0.199-0.121c-0.613-0.747-1.336-2.266-2.16-4.559-0.828-2.32-1.453-4.574-1.883-6.762-0.344 1.121-0.598 2.547-0.758 4.282 0.508 1.839 0.946 3.281 1.321 4.32 0.664 1.918 1.347 2.879 2.039 2.879l1.64-0.039zm77.16-0.243c-0.402-2.503-0.757-5.144-1.082-7.917-0.293-1.493-1.011-2.243-2.16-2.243-0.558 0-0.933 0.254-1.117 0.762-0.055 0.188-0.082 0.469-0.082 0.84 0 0.508 0.496 1.973 1.481 4.398 0.8 1.977 1.375 3.309 1.718 4l0.442 1.043-2.961 1.801-0.078-0.242c-0.028-0.481-0.2-1.012-0.52-1.602-0.293-0.558-0.562-0.89-0.801-1h-0.281l0.242 3.602 0.481-0.238-0.684 0.359-0.039-0.039c-0.32-1.016-0.812-2.227-1.48-3.641-0.774-1.547-1.36-2.496-1.758-2.843l-0.563-0.477c0.082 0.344 0.254 1.277 0.524 2.797 0.293 1.734 0.449 2.883 0.476 3.441l0.442 1.883-1.559 0.68-0.16-0.242c-1.949-3.122-3.039-4.918-3.281-5.399-0.215-0.453-0.453-1.242-0.719-2.359 0.211 4.344 0.414 7.453 0.598 9.32l-1.797 0.84c-0.11 0.078-0.215 0.144-0.321 0.199-0.187 0.133-0.347 0.25-0.48 0.36l-0.32 0.398c2.16 2.027 4.918 5.375 8.281 10.043 3.652 5.012 5.812 7.879 6.476 8.598-0.531-1.493-1.785-3.664-3.757-6.52-2.801-4.078-4.879-7.281-6.243-9.602 7.735-3.011 13.414-7.398 17.043-13.16 2.051-3.222 3.305-5.09 3.758-5.597 1.547-1.758 3.563-2.973 6.039-3.641-0.293-0.613-0.426-1.148-0.398-1.602-0.692 0.188-1.266 0.375-1.719 0.563l-2.12 1.398c-0.453 0.403-2.16 2.336-5.121 5.801-2.188 2.559-4.32 4.309-6.399 5.238zm-1.48 41.961c0 0.215-0.121 0.387-0.359 0.52-0.243 0.16-0.536 0.242-0.879 0.242-0.348 0-0.641-0.082-0.883-0.242-0.238-0.133-0.359-0.305-0.359-0.52 0-0.211 0.121-0.398 0.359-0.558 0.242-0.133 0.535-0.199 0.883-0.199 0.343 0 0.636 0.066 0.879 0.199 0.238 0.16 0.359 0.347 0.359 0.558zm-4.602 1.723v1.277h-3.398v-1.277h3.398zm-3.88-10.363c-0.133 1.121-0.735 1.375-1.801 0.762-0.774-0.426-1.625-1.176-2.559-2.243 0.559-0.132 1-0.199 1.32-0.199 1.012 0 1.786 0.242 2.321 0.723 0.265 0.238 0.504 0.558 0.719 0.957zm16.441-16.16c0.371-0.161 0.559-0.36 0.559-0.598 0-0.242-0.188-0.453-0.559-0.641-0.375-0.16-0.816-0.238-1.32-0.238-0.508 0-0.95 0.078-1.321 0.238-0.375 0.188-0.558 0.399-0.558 0.641 0 0.238 0.183 0.437 0.558 0.598 0.375 0.187 0.813 0.281 1.321 0.281 0.507 0 0.945-0.094 1.32-0.281zm-26.601 24.203c0.161 0.16 0.243 0.359 0.243 0.597 0 0.243-0.082 0.442-0.243 0.602-0.16 0.16-0.359 0.238-0.597 0.238-0.242 0-0.442-0.078-0.602-0.238s-0.238-0.359-0.238-0.602c0-0.238 0.078-0.437 0.238-0.597s0.36-0.242 0.602-0.242c0.238 0 0.437 0.082 0.597 0.242zm-7.32 0.797c-0.426-0.161-0.641-0.36-0.641-0.598 0-0.348 0.067-0.563 0.204-0.641l0.796-0.16c0.563 0 1.161 0.145 1.801 0.442 0.266 0.132 1.535 0.812 3.801 2.039-3.094-0.426-5.078-0.785-5.961-1.082zm4.281-10.078c-0.242 0.16-0.519 0.238-0.84 0.238-0.32 0-0.601-0.078-0.839-0.238-0.243-0.133-0.36-0.293-0.36-0.481 0-0.187 0.117-0.359 0.36-0.519 0.238-0.133 0.519-0.2 0.839-0.2 0.321 0 0.598 0.067 0.84 0.2 0.239 0.16 0.36 0.332 0.36 0.519 0 0.188-0.121 0.348-0.36 0.481zm-2.281 1.039-0.039 1.082c-1.707-1.547-2.602-2.442-2.68-2.68 0.266-0.16 0.426-0.254 0.481-0.281 0.187-0.055 0.453-0.082 0.801-0.082 0.476 0 0.824 0.121 1.039 0.363 0.265 0.293 0.398 0.824 0.398 1.598zm-4.559 2.16c0 0.293-0.066 0.535-0.199 0.718-0.16 0.215-0.336 0.321-0.519 0.321-0.188 0-0.348-0.106-0.481-0.321-0.16-0.183-0.242-0.425-0.242-0.718s0.082-0.547 0.242-0.758c0.133-0.188 0.293-0.281 0.481-0.281 0.183 0 0.359 0.093 0.519 0.281 0.133 0.211 0.199 0.465 0.199 0.758zm-8.519-18.239c0.32 0.024 0.437 0.012 0.359-0.043-0.132-0.078-0.359-0.292-0.679-0.636 0.027-0.27 0.414-0.403 1.16-0.403 0.238 0 0.519 0.055 0.84 0.161 0.48 0.16 0.8 0.402 0.961 0.718l-1.84 0.481c0.211-0.028 0.293 0.137 0.238 0.48-0.188 0.348-0.281 0.563-0.281 0.641l-2.117-0.52 0.078-0.441c0.293-0.293 0.718-0.438 1.281-0.438zm-7.039 5.079c-0.32-0.188-0.496-0.348-0.524-0.481 0.082-0.293 0.481-0.437 1.204-0.437 1.359 0 2.359 0.093 3 0.277 1.144 0.32 1.812 1 2 2.043-1.067-0.27-2.043-0.551-2.922-0.84-0.481-0.16-0.907-0.242-1.282-0.242 0.696 0.105 1.442 0.601 2.243 1.48 0.691 0.746 1.078 1.321 1.16 1.719h-3.481c-1.492-0.133-2.695-0.465-3.601-1-0.824-0.504-1.239-1.051-1.239-1.641 0-0.316 0.067-0.519 0.2-0.597 0.132-0.106 0.199-0.172 0.199-0.199 1.066-0.137 2.082-0.161 3.043-0.082zm0.879-2.079c-0.055 0.133-0.149 0.239-0.281 0.321-0.239 0.16-0.52 0.238-0.84 0.238-0.321 0-0.586-0.078-0.801-0.238-0.238-0.137-0.359-0.297-0.359-0.481 0-0.187 0.121-0.359 0.359-0.519 0.215-0.137 0.48-0.203 0.801-0.203 0.32 0 0.601 0.066 0.84 0.203 0.132 0.105 0.226 0.226 0.281 0.359 0.054-0.055 0.121-0.105 0.199-0.16 0.16-0.082 0.359-0.121 0.602-0.121 0.238 0 0.437 0.039 0.597 0.121 0.16 0.078 0.242 0.187 0.242 0.32s-0.082 0.239-0.242 0.321c-0.16 0.078-0.359 0.117-0.597 0.117-0.243 0-0.442-0.039-0.602-0.117-0.078-0.055-0.145-0.11-0.199-0.161zm-6.321-9.402c0.801-0.238 1.387-0.305 1.758-0.199 0.723 0.187 1.657 0.906 2.801 2.16 0.453 0.293 0.734 0.586 0.84 0.879 0.027 0.055 0.066 0.375 0.121 0.961-4.879 0.133-8.508-0.785-10.879-2.758-1.441-1.176-2.16-2.254-2.16-3.242 0-0.531 0.305-0.68 0.918-0.442 0.641-0.05 1.68 0.227 3.121 0.84 1.305 0.563 2.465 1.16 3.48 1.801zm60.879-21.199c0.403-0.508 0.668-1.012 0.801-1.52 0.078-0.293 0.117-0.707 0.117-1.238 0-1.867-0.183-3.121-0.558-3.762-0.348-0.64-1.067-0.961-2.16-0.961-1.172 0-2.106 0.348-2.797 1.043-0.617 0.637-0.922 1.399-0.922 2.282 0 0.906 0.586 1.746 1.762 2.515 0.636 0.43 1.546 0.961 2.718 1.602 0.586 0.187 0.934 0.199 1.039 0.039zm-7.718 1.48-0.039 0.039-0.122 3.52 1.598 0.242 0.16-2.242c0-0.664-0.09-1.133-0.277-1.398-0.16-0.215-0.481-0.348-0.961-0.399-0.188 0.133-0.309 0.211-0.359 0.238zm-63.84 39.602c0.133 0 0.254 0.023 0.359 0.078 0.106 0.082 0.16 0.172 0.16 0.281 0 0.106-0.054 0.184-0.16 0.239-0.105 0.082-0.226 0.121-0.359 0.121s-0.254-0.039-0.36-0.121c-0.109-0.055-0.16-0.133-0.16-0.239 0-0.109 0.051-0.199 0.16-0.281 0.106-0.055 0.227-0.078 0.36-0.078zm13.277 7.918c-0.316 0-0.691-0.305-1.117-0.918l-0.52-0.922c1.305-0.078 2.211-0.051 2.719 0.082 0.266 0.051 0.707 0.293 1.32 0.719-1.066 0.691-1.867 1.039-2.402 1.039zm-5.155-6.559c-1.149 0-2.121-0.215-2.922-0.64-0.828-0.426-1.238-0.95-1.238-1.559-0.188-0.187-0.336-0.414-0.442-0.684 0.879-0.636 1.614-0.957 2.2-0.957 0.668 0 1.253 0.25 1.761 0.758 0.481 0.481 1.25 1.563 2.321 3.242l-1.68-0.16zm-0.242-3.199c-0.293-0.91-0.453-1.375-0.481-1.402 1.149-0.106 2 0.105 2.563 0.64 0.426 0.399 1.078 1.426 1.957 3.078-2.024-0.558-3.371-1.332-4.039-2.316zm-46.2-17.082c-0.292-0.641-0.492-1-0.601-1.078l1-0.203c0.883 0.027 1.613 0.16 2.199 0.402 0.402 0.184 0.641 0.36 0.723 0.52-1.629 0.691-2.735 0.812-3.321 0.359zm27.04 6.199-0.399-0.48c-0.828-0.746-1.828-1.227-3-1.438-1.254-0.215-1.894-0.336-1.922-0.359-0.054-0.027-0.679-0.75-1.879-2.16-0.828-0.934-1.785-1.403-2.879-1.403-2.773 0.243-4.546 0.348-5.32 0.321 0.133-0.133 0.305-0.293 0.52-0.481 0.16-0.183 0.238-0.453 0.238-0.801 0-0.05-0.625-0.585-1.879-1.597-1.254-0.988-1.879-1.774-1.879-2.36 0-0.132 0.078-0.519 0.238-1.16-0.054-0.215-0.214-0.398-0.48-0.558 0.723 0.265 1.574 0.652 2.562 1.16 1.305 0.664 2.879 1.531 4.719 2.598l-0.121-0.36c-1.519-1.519-2.414-2.453-2.68-2.801l0.36-0.281 0.043-0.078c0.078-0.027 0.277-0.039 0.597-0.039 0.852 0 3.36 1.41 7.52 4.238 3.976 2.719 6.187 4.414 6.641 5.078l-0.36-0.277c-2.375-0.723-3.601-1.082-3.68-1.082l0.598 0.242c0.43 0.106 0.91 0.664 1.442 1.68 0.425 0.801 0.761 1.597 1 2.398zm-8.239 0.922c-0.906-0.242-1.789-0.562-2.64-0.961-1.707-0.828-2.563-1.719-2.563-2.679 0-1.254 0.977-1.493 2.922-0.719 1.945 0.773 3.238 1.863 3.879 3.277-0.531 0.723-1.067 1.082-1.598 1.082zm-23.801-19.32l0.04 1.719 1-1.36 0.601-1c0.371-0.719 0.559-1.238 0.559-1.558 0-0.75-0.039-1.403-0.121-1.961 0.16-0.082-0.028-0.121-0.559-0.121-0.48 0-0.828 0.269-1.039 0.8-0.266 0.641-0.426 1.801-0.481 3.481zm8.161-9.442c-0.106 0.082-0.161 0.293-0.161 0.641 0.293 0.906 0.532 1.906 0.719 3 0.375 2.133 0.336 3.762-0.121 4.883l1.32 0.238c-0.105-5.148-0.558-8.121-1.359-8.922-0.184 0.055-0.32 0.11-0.398 0.16zm39.16 2.84c0.664-0.48 1.199-1.437 1.597-2.879 0.43-1.492 0.59-3.093 0.481-4.8-1.492 1.839-2.238 3.574-2.238 5.199l0.16 2.48zm-9.879 5.199h0.117c0.082-0.078 0.121-0.277 0.121-0.597 0-0.375-0.148-0.629-0.441-0.762-0.481-0.133-0.934-0.266-1.36-0.398l-0.398-0.121c0.613-0.106 1.773-0.211 3.48-0.321l0.84-0.078c-0.402-0.348-1.176-0.574-2.32-0.68-1.973-0.187-3.055-0.308-3.242-0.359-2.797-0.508-4.387-2.094-4.758-4.762l-0.121-0.718 0.039 2.961c-0.024-0.215-0.371-1.536-1.039-3.961l-0.199-0.879-0.321-0.602-0.082 1.84c0 1.867 0.375 3.973 1.121 6.32 0.774 2.399 1.481 3.602 2.121 3.602 0.719 0 1.774-0.043 3.161-0.121 1.785-0.11 2.879-0.227 3.281-0.364z" inkscape:connector-curvature="0"/>
      <path id="path24" style="fill-rule:evenodd;fill:#9b9286" d="m202.76 5.879 0.679 0.442c0.051 0.05 0.707 0.359 1.957 0.918-0.773-0.372-1.652-0.825-2.636-1.36zm-9.364-4.121 1.922 0.16c-0.93-0.105-1.91-0.183-2.92-0.238l1 0.078zm-4.08-0.238-1.4-0.039c0.023 1.625-0.121 3.011-0.442 4.16-0.32 1.172-0.707 1.758-1.16 1.758s-0.84-0.586-1.16-1.758c-0.32-1.149-0.48-2.535-0.48-4.16-2.614 0.078-4.918 0.183-6.918 0.32 0.023 0.586-0.016 1.184-0.121 1.797-0.133 0.641-0.293 1.094-0.481 1.359-0.187 0.27-0.387 0.309-0.601 0.121-0.211-0.187-0.387-0.558-0.52-1.121-0.133-0.558-0.199-1.238-0.199-2.039l-11.918 1.16c0.531 0 0.945 0.039 1.238 0.122 0.293 0.05 0.492 0.238 0.602 0.558-0.348 1.016-1.282 2-2.801 2.961-1.359 0.824-2.039 1.625-2.039 2.398 0 0.243 0.172 0.817 0.516 1.723 0.429 1.067 0.828 1.598 1.203 1.598 1.597 0 3.414-0.586 5.437-1.758 2-1.176 4.293-1.762 6.883-1.762 0.641 0 2 0.227 4.078 0.68 0.961-0.106 1.906-0.16 2.84-0.16h0.082c0.16-1.012 0.281-2.305 0.359-3.879l0.16 0.359c0.293 1.254 0.532 2.481 0.719 3.68h0.039c0.16-0.211 0.617-0.598 1.364-1.16l1.718 1.64c5.332 1.469 8.028 2.2 8.078 2.2l0.161-0.477 0.043-1.203c0-1.52-0.028-2.957-0.082-4.32-1.309-1.387-2.532-2.559-3.68-3.52-0.906-0.746-1.414-1.16-1.52-1.238zm-56.761-1.281 0.242 0.082 0.32 0.039-0.562-0.121zm26.281 3.32 1.519-0.078c0.293-0.055 0.586-0.11 0.879-0.16l-2.398 0.238zm-5 0.359-0.481 0.16 0.52-0.16h-0.039zm-6.52 0.039 1.039 0.082 1.36-0.039c-0.797 0-1.598-0.015-2.399-0.043zm-33.718 12.121c0-1.039-0.508-1.918-1.524-2.64-1.039-0.719-2.277-1.078-3.719-1.078-0.05 0.027-2.171 1.48-6.359 4.359-3.84 2.613-5.934 4.133-6.277 4.559 0.023 0.347-0.016 1.242-0.121 2.679-0.133 1.575-0.2 2.453-0.2 2.641 0 1.254 0.266 3.387 0.797 6.402l0.242-0.16c0.106-0.055 0.215-0.121 0.321-0.199l1.8-0.84c-0.187-1.867-0.386-4.976-0.601-9.32 0.266 1.117 0.508 1.906 0.719 2.359 0.242 0.481 1.336 2.277 3.281 5.399 0.48-0.508 0.785-0.985 0.918-1.438 0.055-0.242 0.137-0.551 0.242-0.922l0.121 0.039c-0.027-0.558-0.187-1.707-0.48-3.437-0.266-1.524-0.442-2.453-0.52-2.801l0.559 0.48c0.398 0.348 0.988 1.293 1.761 2.84 0.665 1.414 1.161 2.625 1.477 3.641l0.043 0.039 0.199-0.121-0.242-3.602h0.281c0.242 0.11 0.508 0.442 0.801 1 0.32 0.59 0.492 1.121 0.52 1.602 0.132-2.641 0.054-4.387-0.239-5.238-0.16-0.536-0.523-1.082-1.082-1.641 0 0.027-0.281 0.066-0.84 0.121-0.64 0.078-0.972 0.117-1 0.117l0.602-0.238c0.531-0.137 0.945-0.137 1.238 0 0.696 0.266 1.348 0.906 1.961 1.918 0.692 1.148 1.348 1.934 1.961 2.359-0.347-0.691-0.922-2.027-1.722-4-0.985-2.425-1.481-3.89-1.481-4.398 0-0.375 0.027-0.652 0.082-0.84 0.188-0.508 0.559-0.762 1.121-0.762 1.145 0 1.867 0.746 2.16 2.243 0.321 2.773 0.68 5.414 1.078 7.917 1.254-1.441 3.149-3.746 5.68-6.917 1.84-2.321 2.895-3.547 3.16-3.684-1.172-0.637-2.078-1.172-2.718-1.598-1.172-0.773-1.762-1.613-1.762-2.519 0-0.883 0.308-1.641 0.922-2.282 0.691-0.691 1.625-1.039 2.8-1.039 1.094 0 1.813 0.321 2.161 0.961 0.371 0.637 0.558 1.891 0.558 3.758 0 0.535-0.039 0.945-0.121 1.242-0.133 0.504-0.398 1.012-0.797 1.516 0.211-0.023 0.758-0.184 1.637-0.477l2.121-1.398c0.348-0.695 0.774-1.176 1.281-1.441 0.348-0.188 0.52-0.508 0.52-0.961 0-0.293-0.027-0.586-0.082-0.879-0.16-0.586-0.438-1.172-0.84-1.758-0.266-0.348-0.586-0.707-0.961-1.082-1.383-1.414-2.945-2.121-4.68-2.121-1.492 0-3.066 0.148-4.718 0.441-0.532 0.535-1.282 1.399-2.239 2.602 0.184 1.066 0.305 2.476 0.36 4.238 0.078 1.762 0.066 3.172-0.039 4.238l-0.082 0.082c0.054-0.027 0.175-0.105 0.359-0.238 0.48 0.051 0.801 0.184 0.961 0.399 0.187 0.265 0.281 0.734 0.281 1.398l-0.16 2.242-1.602-0.242 0.122-3.52zm-40.92-7.757-0.961-0.364-0.199 0.762 1.16-0.398zm-7.442 8.359c0.321 0 0.602-0.094 0.84-0.281 0.215-0.16 0.32-0.36 0.32-0.598 0-0.242-0.105-0.457-0.32-0.644-0.238-0.157-0.519-0.239-0.84-0.239-0.316 0-0.586 0.082-0.797 0.239-0.242 0.187-0.363 0.402-0.363 0.644 0 0.238 0.121 0.438 0.363 0.598 0.211 0.187 0.481 0.281 0.797 0.281zm7.203 2.359c-1.972-0.132-3.32-0.519-4.043-1.16-1.117 1.36-1.679 2.309-1.679 2.84 0 1.254 1.761 3.027 5.281 5.32 3.762 2.453 6.641 3.067 8.641 1.84-1.094-3.332-2.563-5.922-4.403-7.762-0.586-0.585-1.851-0.945-3.797-1.078zm-18.961-7.922c-0.695 2.723-1.054 4.204-1.082 4.442-0.023-3.52 0-5.973 0.082-7.359-0.48-0.243-1.347-0.973-2.601-2.2-1.465 0.051-2.547-0.148-3.238-0.601l-1.36 0.082 1.117-0.043c-1.332 0.668-2.957 1.16-4.878 1.48-2.028 0.27-3.481 0.496-4.36 0.684-2.879 0.558-4.32 2.211-4.32 4.957 0.055 2.453 0.066 3.812 0.039 4.082-0.504-2.133-0.891-3.508-1.16-4.121-0.321-0.801-0.746-1.199-1.278-1.199-0.746 0-1.203 0.304-1.363 0.918-0.156 0.562-0.238 2.109-0.238 4.64 0.348 2.801 0.547 4.801 0.601 6l0.161 0.321c-0.028-0.106-0.043-0.227-0.043-0.36-0.028-0.398-0.051-0.867-0.079-1.398l-0.32-3.961 0.16 0.719c0.16-1.735 0.414-3.161 0.758-4.282 0.43 2.188 1.055 4.442 1.883 6.762 0.824 2.293 1.547 3.812 2.16 4.559l2.117 0.078 4.403-0.239c1.226-0.32 3.574-1.105 7.039-2.359 1.625-0.586 3.547-0.879 5.761-0.879 0.454 0 0.852 0.238 1.2 0.719 0.347 0.48 0.734 0.719 1.16 0.719 0.344 0 0.679-0.067 1-0.2 0.211-0.082 0.574-0.242 1.078-0.48 0.215-0.293 0.519-1.453 0.922-3.481l0.039-0.519c0.293-4.242 0.453-7.043 0.48-8.398 0.106 3.011 0.282 5.277 0.52 6.796 0.48-1.597 0.547-3.453 0.199-5.558-0.504-2.883-1.84-4.52-4-4.922 0 1.281-0.238 2.363-0.719 3.242-0.508 0.906-1.121 1.359-1.84 1.359zm-19.64-4.039 0.762-0.078c-0.481 0.024-0.989 0.039-1.524 0.039l0.762 0.039zm-5.121 2.161 2.601-1.719 0.68-0.481-3.602 2.399 0.321-0.199zm-16.399 2.039c-1.359-0.184-2.508 0.386-3.441 1.722-1.012 1.414-1.531 3.387-1.559 5.918l-0.359-0.597c-0.348-0.774-0.789-1.27-1.32-1.481-0.403-0.16-1.161-0.242-2.282-0.242-0.879 0-1.64 0.109-2.281 0.32-0.316 1.625-0.547 4.266-0.68 7.922-0.105 3.41-0.183 5.293-0.238 5.637l-0.16 0.961 0.281-0.117 0.797-0.321-0.918-0.519c0.668-0.59 1.254-1.176 1.762-1.762 0.316-0.348 0.652-0.625 1-0.84 0.183-0.105 0.758-0.254 1.719-0.441 0.933-0.426 1.547-1.399 1.839-2.918 0.051-1.68 0.215-2.84 0.481-3.481 0.211-0.535 0.559-0.8 1.039-0.8 0.535 0 0.719 0.039 0.559 0.121 0.082 0.558 0.121 1.211 0.121 1.957 0 0.32-0.188 0.84-0.559 1.562l-0.601 1c0.027 0.828 0.082 1.399 0.16 1.719 0.132 0.453 0.359 0.695 0.679 0.719 1.442-0.477 2.453-1.586 3.039-3.317 0.508-1.519 0.762-3.773 0.762-6.761 0-0.532-0.015-0.735-0.039-0.598l-2.16-0.043 0.398-0.32 2.563-1c0.316 4.8 0.586 7.347 0.797 7.64 0.293 0.481 2.308 1.149 6.043 2-0.082-1.011 0.023-1.933 0.316-2.758 0.16-0.453 0.363-0.867 0.602-1.242 0.105 0.321 0.308 1.082 0.601 2.282 0.266 1.226 0.414 1.96 0.438 2.199 1.574-1.145 2.988-2.879 4.242-5.199 1.199-2.215 1.801-4.106 1.801-5.68 0-1.039-0.297-2.082-0.883-3.121-0.719-1.094-1.211-1.907-1.481-2.442-0.476-0.05-0.851-0.078-1.117-0.078-0.613 0-2.867 0.266-6.761 0.801l-0.04 1.16c0.106 0.559 0.172 1.184 0.2 1.879v0.84l-0.321-0.481c-0.105 2.161-0.32 3.774-0.64 4.84l-0.199-1.039c-0.133-1.066-0.801-2.265-2-3.601-0.961-1.09-1.692-1.758-2.2-2zm-4.199 0.242 0.481-0.442h-0.043l-0.438 0.442zm191.8 2.68 0.918 0.359 1.039 0.121c-0.481-0.215-1.133-0.375-1.957-0.48zm-9.08-6.641c0.16 0.215 0.238 0.48 0.238 0.801 0 0.32-0.078 0.586-0.238 0.8-0.188 0.211-0.399 0.321-0.641 0.321-0.238 0-0.437-0.11-0.597-0.321-0.188-0.214-0.282-0.48-0.282-0.8 0-0.321 0.094-0.586 0.282-0.801 0.16-0.215 0.359-0.32 0.597-0.32 0.242 0 0.453 0.105 0.641 0.32zm-25.32 3.359c-0.133 0.11-0.309 0.16-0.52 0.16-0.961 0-1.48-0.105-1.559-0.32-0.054-0.211-0.253-1-0.601-2.359l0.199 0.043 3.602 1c0.531 0 2.281-0.176 5.238-0.524-3.68 0.961-5.801 1.629-6.359 2zm-144.56 14.922l0.519-0.281-0.558 0.281h0.039zm69.918 11.32c1.414 1.332 1.84 1.321 1.281-0.043-0.48-2.183-1.172-4.332-2.082-6.437-0.933-2.16-1.652-3.242-2.156-3.242-0.32 0-0.684 0.121-1.082 0.363-0.641 0.399-0.961 1-0.961 1.797 0 0.508 0.359 1.402 1.082 2.68 0.613 1.148 1.078 1.894 1.398 2.242 0.106 0.105 0.946 0.984 2.52 2.64zm-4.559-13.601c0.16-0.215 0.239-0.481 0.239-0.801 0-0.316-0.079-0.586-0.239-0.801-0.16-0.211-0.347-0.316-0.558-0.316-0.215 0-0.403 0.105-0.563 0.316-0.16 0.215-0.238 0.485-0.238 0.801 0 0.32 0.078 0.586 0.238 0.801s0.348 0.32 0.563 0.32c0.211 0 0.398-0.105 0.558-0.32zm-71.679-8.481c0.078-0.05 0.214-0.105 0.398-0.16 0.801 0.801 1.254 3.774 1.359 8.922l-1.32-0.242c0.453-1.117 0.496-2.746 0.121-4.879-0.187-1.094-0.426-2.094-0.719-3 0-0.348 0.055-0.559 0.161-0.641zm39.16 2.84-0.16-2.48c0-1.625 0.746-3.36 2.238-5.199 0.109 1.707-0.051 3.308-0.481 4.8-0.398 1.442-0.933 2.399-1.597 2.879zm-9.879 5.199c-0.402 0.137-1.496 0.254-3.281 0.364-1.387 0.078-2.442 0.117-3.161 0.117-0.64 0-1.347-1.199-2.121-3.598-0.746-2.347-1.121-4.453-1.121-6.32l0.082-1.84 0.321 0.598 0.199 0.883c0.668 2.425 1.015 3.746 1.039 3.957l-0.039-2.957 0.121 0.718c0.371 2.668 1.961 4.254 4.758 4.762 0.187 0.051 1.269 0.172 3.242 0.356 1.144 0.109 1.918 0.335 2.32 0.683l-0.84 0.078c-1.707 0.11-2.867 0.215-3.48 0.321l0.398 0.121c0.426 0.132 0.879 0.265 1.36 0.398 0.293 0.133 0.441 0.387 0.441 0.762 0 0.32-0.039 0.519-0.121 0.597h-0.117z" inkscape:connector-curvature="0"/>
      <path id="path26" style="fill-rule:evenodd;fill:#d2c8ba" d="m77.52 66.598 5 0.961v-0.039c-1.547-1.336-2.454-2.082-2.719-2.242-0.774-0.532-1.68-0.797-2.723-0.797-0.426 0-1.09 0.066-2 0.199 0.188 0.187 0.629 0.559 1.32 1.121 0.668 0.504 1.043 0.774 1.122 0.797zm2.281-5.879c-0.242-0.105-0.52-0.16-0.84-0.16s-0.586 0.055-0.801 0.16c-0.238 0.133-0.359 0.281-0.359 0.441 0 0.161 0.121 0.293 0.359 0.399 0.215 0.133 0.481 0.199 0.801 0.199s0.598-0.066 0.84-0.199c0.211-0.106 0.32-0.238 0.32-0.399 0-0.16-0.109-0.308-0.32-0.441zm34.719 3.481-0.122-0.559c-0.265-0.828-0.57-1.617-0.918-2.363-7.65-6.477-13.574-11.278-17.761-14.399-5.84-4.347-10.731-8.105-14.68-11.281-0.906-1.332-2.57-2.426-5-3.281-3.945-1.383-6.691-2.492-8.238-3.317-1.442-0.883-2.762-1.656-3.961-2.32-2.293-1.254-3.879-1.867-4.762-1.84l-1.039-0.199c1.016-0.508 1.668-1.629 1.961-3.363 0.266-1.52 0.215-2.946-0.16-4.278-0.238-1.519-0.414-3.789-0.52-6.8-0.027 1.359-0.187 4.16-0.48 8.398l-0.039 0.519c-0.403 2.028-0.707 3.188-0.922 3.485-0.719 0.906-1.117 1.383-1.199 1.437-0.825 0.481-2.239 0.563-4.239 0.243l-6 0.398-5.8 0.398-4.403 0.243-1.918 0.039-1.64 0.039c-0.692 0-1.375-0.961-2.039-2.879-0.375-1.043-0.813-2.481-1.321-4.32l-0.16-0.719 0.32 3.957c0.028 0.535 0.051 1 0.079 1.402 0 0.133 0.015 0.25 0.043 0.36v0.039c0.132 1.226 0.41 2.148 0.839 2.761l1.039 0.438c0.985 0.613 1.559 0.976 1.719 1.082 0.426 0.215 2.293 1.254 5.602 3.121-7.895-2.242-12.067-3.43-12.52-3.563-2.668-0.824-4.441-1.238-5.32-1.238h-1c-1.789 0-3.414 0.094-4.883 0.277-1.117 0.188-2.238 0.415-3.359 0.684-1.84 0.586-5.387 1.984-10.641 4.199l-0.797 0.321c2.481-0.293 5.746-1.243 9.797-2.84 3.629-1.414 6.43-2.121 8.402-2.121 3.122 0 8.399 1.281 15.84 3.84 6.293 2.16 10.332 3.757 12.121 4.8l0.797 0.52c-3.492-2.453-5.918-4.121-7.277-5-1.52-0.961-3.066-1.852-4.641-2.68 5.602-0.855 9.282-1.508 11.039-1.961 0.668-0.187 1.387-0.281 2.161-0.281 5.441 0 9.746 0.586 12.921 1.762 1.731 0.664 3.438 1.586 5.118 2.757 2.64 1.415 5.429 2.614 8.363 3.602 2.476 0.852 3.746 1.305 3.797 1.359 3.066 2.747 9.519 7.747 19.359 15 8.242 6.079 13.496 10.454 15.762 13.122l0.68 1zm-56.598-7.2c-2.453-1.359-3.844-2.093-4.16-2.199 0 0.613 0.41 1.133 1.238 1.559 0.801 0.425 1.773 0.64 2.922 0.64z" inkscape:connector-curvature="0"/>
    </g>
  </g>
<metadata><rdf:RDF><cc:Work><dc:format>image/svg+xml</dc:format><dc:type rdf:resource="http://purl.org/dc/dcmitype/StillImage"/><cc:license rdf:resource="http://creativecommons.org/licenses/publicdomain/"/><dc:publisher><cc:Agent rdf:about="http://openclipart.org/"><dc:title>Openclipart</dc:title></cc:Agent></dc:publisher></cc:Work><cc:License rdf:about="http://creativecommons.org/licenses/publicdomain/"><cc:permits rdf:resource="http://creativecommons.org/ns#Reproduction"/><cc:permits rdf:resource="http://creativecommons.org/ns#Distribution"/><cc:permits rdf:resource="http://creativecommons.org/ns#DerivativeWorks"/></cc:License></rdf:RDF></metadata></svg>
