<?xml version="1.0" encoding="UTF-8" standalone="no"?>
<!-- Created with Inkscape (http://www.inkscape.org/) -->

<svg
   xmlns:dc="http://purl.org/dc/elements/1.1/"
   xmlns:cc="http://creativecommons.org/ns#"
   xmlns:rdf="http://www.w3.org/1999/02/22-rdf-syntax-ns#"
   xmlns:svg="http://www.w3.org/2000/svg"
   xmlns="http://www.w3.org/2000/svg"
   xmlns:sodipodi="http://sodipodi.sourceforge.net/DTD/sodipodi-0.dtd"
   xmlns:inkscape="http://www.inkscape.org/namespaces/inkscape"
   width="88.947403mm"
   height="88.946854mm"
   viewBox="0 0 315.16796 315.16602"
   id="svg4155"
   version="1.1"
   inkscape:version="0.91 r13725"
   sodipodi:docname="spike_trap.svg">
  <defs
     id="defs4157" />
  <sodipodi:namedview
     id="base"
     pagecolor="#ffffff"
     bordercolor="#666666"
     borderopacity="1.0"
     inkscape:pageopacity="0.0"
     inkscape:pageshadow="2"
     inkscape:zoom="0.98994949"
     inkscape:cx="47.367413"
     inkscape:cy="103.92795"
     inkscape:document-units="px"
     inkscape:current-layer="layer1"
     showgrid="false"
     inkscape:window-width="1920"
     inkscape:window-height="1017"
     inkscape:window-x="1912"
     inkscape:window-y="-8"
     inkscape:window-maximized="1"
     fit-margin-top="0"
     fit-margin-left="0"
     fit-margin-right="0"
     fit-margin-bottom="0" />
  <metadata
     id="metadata4160">
    <rdf:RDF>
      <cc:Work
         rdf:about="">
        <dc:format>image/svg+xml</dc:format>
        <dc:type
           rdf:resource="http://purl.org/dc/dcmitype/StillImage" />
        <dc:title></dc:title>
      </cc:Work>
    </rdf:RDF>
  </metadata>
  <g
     inkscape:label="Layer 1"
     inkscape:groupmode="layer"
     id="layer1"
     transform="translate(-253.54883,-201.81445)">
    <path
       style="opacity:1;fill:#000000;fill-opacity:1;stroke:none;stroke-width:21.60000038;stroke-linecap:round;stroke-linejoin:miter;stroke-miterlimit:4;stroke-dasharray:none;stroke-opacity:1"
       d="m 253.54883,201.81445 0,315.16602 315.16797,0 0,-315.16602 -315.16797,0 z m 75.76172,38.38477 a 40.406101,40.406101 0 0 1 40.40625,40.40625 40.406101,40.406101 0 0 1 -40.40625,40.40625 40.406101,40.406101 0 0 1 -40.40625,-40.40625 40.406101,40.406101 0 0 1 40.40625,-40.40625 z m 160.61328,0 a 40.406101,40.406101 0 0 1 40.40625,40.40625 40.406101,40.406101 0 0 1 -40.40625,40.40625 40.406101,40.406101 0 0 1 -40.40625,-40.40625 40.406101,40.406101 0 0 1 40.40625,-40.40625 z M 329.31055,393.74219 a 40.406101,40.406101 0 0 1 40.40625,40.40625 40.406101,40.406101 0 0 1 -40.40625,40.40625 40.406101,40.406101 0 0 1 -40.40625,-40.40625 40.406101,40.406101 0 0 1 40.40625,-40.40625 z m 160.61328,0 a 40.406101,40.406101 0 0 1 40.40625,40.40625 40.406101,40.406101 0 0 1 -40.40625,40.40625 40.406101,40.406101 0 0 1 -40.40625,-40.40625 40.406101,40.406101 0 0 1 40.40625,-40.40625 z"
       id="rect4703"
       inkscape:connector-curvature="0" />
  </g>
</svg>
