<?xml version="1.0" encoding="UTF-8" standalone="no"?>
<!-- Generator: Adobe Illustrator 19.0.0, SVG Export Plug-In . SVG Version: 6.00 Build 0)  -->

<svg
   xmlns:dc="http://purl.org/dc/elements/1.1/"
   xmlns:cc="http://creativecommons.org/ns#"
   xmlns:rdf="http://www.w3.org/1999/02/22-rdf-syntax-ns#"
   xmlns:svg="http://www.w3.org/2000/svg"
   xmlns="http://www.w3.org/2000/svg"
   xmlns:sodipodi="http://sodipodi.sourceforge.net/DTD/sodipodi-0.dtd"
   xmlns:inkscape="http://www.inkscape.org/namespaces/inkscape"
   version="1.1"
   id="Capa_1"
   x="0px"
   y="0px"
   viewBox="0 0 463 463"
   style="enable-background:new 0 0 463 463;"
   xml:space="preserve"
   inkscape:version="0.91 r13725"
   sodipodi:docname="trapped_lever.svg"><metadata
     id="metadata39"><rdf:RDF><cc:Work
         rdf:about=""><dc:format>image/svg+xml</dc:format><dc:type
           rdf:resource="http://purl.org/dc/dcmitype/StillImage" /></cc:Work></rdf:RDF></metadata><defs
     id="defs37" /><sodipodi:namedview
     pagecolor="#ffffff"
     bordercolor="#666666"
     borderopacity="1"
     objecttolerance="10"
     gridtolerance="10"
     guidetolerance="10"
     inkscape:pageopacity="0"
     inkscape:pageshadow="2"
     inkscape:window-width="1055"
     inkscape:window-height="682"
     id="namedview35"
     showgrid="false"
     inkscape:zoom="0.50971922"
     inkscape:cx="231.5"
     inkscape:cy="231.5"
     inkscape:window-x="0"
     inkscape:window-y="0"
     inkscape:window-maximized="0"
     inkscape:current-layer="Capa_1" /><path
     d="M343.5,416H295v-24.5c0-4.142-3.357-7.5-7.5-7.5H239V78.277c18.205-3.515,32-19.561,32-38.777C271,17.72,253.28,0,231.5,0  S192,17.72,192,39.5c0,19.216,13.795,35.262,32,38.777V384h-48.5c-4.143,0-7.5,3.358-7.5,7.5V416h-48.5  c-8.547,0-15.5,6.953-15.5,15.5v16c0,8.547,6.953,15.5,15.5,15.5h224c8.547,0,15.5-6.953,15.5-15.5v-16  C359,422.953,352.047,416,343.5,416z M207,39.5c0-13.509,10.99-24.5,24.5-24.5S256,25.991,256,39.5S245.01,64,231.5,64  S207,53.009,207,39.5z M183,399h97v17h-97V399z M344,447.5c0,0.276-0.225,0.5-0.5,0.5h-224c-0.275,0-0.5-0.224-0.5-0.5v-16  c0-0.276,0.225-0.5,0.5-0.5h224c0.275,0,0.5,0.224,0.5,0.5V447.5z"
     id="path3"
     style="fill:#ff0000" /><g
     id="g5" /><g
     id="g7" /><g
     id="g9" /><g
     id="g11" /><g
     id="g13" /><g
     id="g15" /><g
     id="g17" /><g
     id="g19" /><g
     id="g21" /><g
     id="g23" /><g
     id="g25" /><g
     id="g27" /><g
     id="g29" /><g
     id="g31" /><g
     id="g33" /></svg>